<svg width="24" height="24" viewBox="0 0 24 24" fill="none" xmlns="http://www.w3.org/2000/svg">
<path d="M6 11.3798C6 11.9102 6.21071 12.4189 6.58579 12.794C6.96086 13.1691 7.46957 13.3798 8 13.3798H17L21 15.8734V4.37978C21 3.84935 20.7893 3.34064 20.4142 2.96557C20.0391 2.5905 19.5304 2.37978 19 2.37978H8C7.46957 2.37978 6.96086 2.5905 6.58579 2.96557C6.21071 3.34064 6 3.84935 6 4.37978V11.3798Z" stroke="#CCD4E0" stroke-width="2" stroke-linecap="round" stroke-linejoin="round"/>
<path d="M15.2446 17.1266C15.2446 17.657 15.0339 18.1658 14.6588 18.5408C14.2837 18.9159 13.775 19.1266 13.2446 19.1266H6.22791L2.22791 21.6202V11.1266C2.22791 10.5962 2.43862 10.0875 2.81369 9.7124C3.18876 9.33732 3.69747 9.12661 4.22791 9.12661H5.85681" stroke="#CCD4E0" stroke-width="2" stroke-linecap="round" stroke-linejoin="round"/>
<line x1="10.7472" y1="8.12661" x2="16.2527" y2="8.12661" stroke="#CCD4E0" stroke-width="2" stroke-linecap="round"/>
</svg>
