<svg width="24" height="24" viewBox="0 0 24 24" fill="none" xmlns="http://www.w3.org/2000/svg">
<path d="M17.4187 2.49996V10.1744" stroke="#243CBB" stroke-width="2" stroke-linecap="round" stroke-linejoin="round"/>
<path d="M13.5815 6.33716H21.2559" stroke="#243CBB" stroke-width="2" stroke-linecap="round" stroke-linejoin="round"/>
<path d="M20.7436 16.9765V19.6862C20.7446 19.9377 20.693 20.1867 20.592 20.4172C20.491 20.6477 20.3429 20.8546 20.1572 21.0247C19.9715 21.1947 19.7522 21.3242 19.5134 21.4048C19.2746 21.4854 19.0216 21.5153 18.7706 21.4927C15.9857 21.1907 13.3105 20.2409 10.9602 18.7197C8.77343 17.3329 6.91948 15.4827 5.52994 13.3003C4.00042 10.9439 3.04856 8.26107 2.75149 5.46915C2.72887 5.21938 2.75861 4.96764 2.83882 4.72996C2.91903 4.49229 3.04795 4.27389 3.21737 4.08866C3.38679 3.90343 3.59299 3.75544 3.82286 3.65411C4.05273 3.55278 4.30121 3.50032 4.55251 3.50009H7.26761C7.70683 3.49577 8.13264 3.651 8.46566 3.93683C8.79869 4.22267 9.01621 4.61961 9.07768 5.05366C9.19228 5.92084 9.40481 6.77229 9.71121 7.59177C9.83297 7.91507 9.85933 8.26642 9.78714 8.6042C9.71496 8.94198 9.54727 9.25203 9.30394 9.49761L8.15455 10.6447C9.44291 12.906 11.319 14.7784 13.5848 16.0642L14.7341 14.9171C14.9802 14.6742 15.2909 14.5069 15.6293 14.4348C15.9678 14.3628 16.3198 14.3891 16.6438 14.5106C17.4649 14.8164 18.318 15.0285 19.1869 15.1429C19.6266 15.2048 20.0281 15.4258 20.3151 15.7639C20.6021 16.1019 20.7546 16.5335 20.7436 16.9765Z" stroke="#243CBB" stroke-width="2" stroke-linecap="round" stroke-linejoin="round"/>
</svg>
