<svg width="24" height="24" viewBox="0 0 24 24" fill="none" xmlns="http://www.w3.org/2000/svg">
<g id="icon / 24x24 / constructor / ask phone">
<g id="Group 887">
<path id="Vector" d="M17.4187 2.49996V10.1744" stroke="#243CBB" stroke-width="2" stroke-linecap="round" stroke-linejoin="round"/>
<path id="Vector_2" d="M13.5815 6.33716H21.2559" stroke="#243CBB" stroke-width="2" stroke-linecap="round" stroke-linejoin="round"/>
<path id="Vector_3" d="M20.7435 16.9765V19.6862C20.7445 19.9377 20.6929 20.1867 20.5919 20.4172C20.491 20.6477 20.3429 20.8546 20.1571 21.0247C19.9714 21.1947 19.7521 21.3242 19.5134 21.4048C19.2746 21.4854 19.0216 21.5153 18.7705 21.4927C15.9856 21.1907 13.3105 20.2409 10.9601 18.7197C8.77337 17.3329 6.91942 15.4827 5.52988 13.3003C4.00035 10.9439 3.0485 8.26107 2.75143 5.46915C2.72881 5.21938 2.75855 4.96764 2.83876 4.72996C2.91897 4.49229 3.04789 4.27389 3.21731 4.08866C3.38672 3.90343 3.59293 3.75544 3.8228 3.65411C4.05266 3.55278 4.30115 3.50032 4.55245 3.50009H7.26755C7.70677 3.49577 8.13258 3.651 8.4656 3.93683C8.79863 4.22267 9.01615 4.61961 9.07762 5.05366C9.19222 5.92084 9.40475 6.77229 9.71115 7.59177C9.83291 7.91507 9.85927 8.26642 9.78708 8.6042C9.7149 8.94198 9.54721 9.25203 9.30388 9.49761L8.15448 10.6447C9.44285 12.906 11.3189 14.7784 13.5847 16.0642L14.7341 14.9171C14.9802 14.6742 15.2908 14.5069 15.6293 14.4348C15.9677 14.3628 16.3198 14.3891 16.6437 14.5106C17.4648 14.8164 18.318 15.0285 19.1869 15.1429C19.6265 15.2048 20.028 15.4258 20.315 15.7639C20.602 16.1019 20.7545 16.5335 20.7435 16.9765Z" stroke="#243CBB" stroke-width="2" stroke-linecap="round" stroke-linejoin="round"/>
</g>
</g>
</svg>
