<svg xmlns="http://www.w3.org/2000/svg" width="149" height="76" viewBox="0 0 149 76" fill="none">
<g clip-path="url(#clip0_1_2)">
<g clip-path="url(#clip1_1_2)">
<circle opacity="0.5" cx="86.5" cy="86.5" r="86.5" transform="matrix(-1 0 0 1 149 -49)" fill="#CCD4E0"/>
<path d="M61 115C104.63 115 140 79.9533 140 36.7211M134.513 8.00001C136.108 12.005 137.379 16.1717 138.295 20.4683" stroke="white" stroke-width="3" stroke-linecap="round"/>
<g clip-path="url(#clip2_1_2)">
<mask id="mask0_1_2" style="mask-type:alpha" maskUnits="userSpaceOnUse" x="9" y="-9" width="91" height="94">
<path d="M31.4668 56.7407H34.0705C34.4785 56.7407 34.8059 57.0681 34.8059 57.4761V60.0798C34.8059 60.4878 34.4785 60.8153 34.0705 60.8153H31.4668C31.0588 60.8153 30.7313 60.4878 30.7313 60.0798V57.4761C30.7313 57.0681 31.0588 56.7407 31.4668 56.7407Z" fill="#435CDB"/>
<path d="M36.8996 56.7407H39.5033C39.9113 56.7407 40.2388 57.0681 40.2388 57.4761V60.0798C40.2388 60.4878 39.9113 60.8153 39.5033 60.8153H36.8996C36.4916 60.8153 36.1642 60.4878 36.1642 60.0798V57.4761C36.1642 57.0681 36.4916 56.7407 36.8996 56.7407Z" fill="#435CDB"/>
<path d="M42.3325 56.7407H44.9362C45.3442 56.7407 45.6717 57.0681 45.6717 57.4761V60.0798C45.6717 60.4878 45.3442 60.8153 44.9362 60.8153H42.3325C41.9245 60.8153 41.597 60.4878 41.597 60.0798V57.4761C41.597 57.0681 41.9245 56.7407 42.3325 56.7407Z" fill="#435CDB"/>
<path d="M47.7653 56.7407H50.369C50.777 56.7407 51.1045 57.0681 51.1045 57.4761V60.0798C51.1045 60.4878 50.777 60.8153 50.369 60.8153H47.7653C47.3573 60.8153 47.0298 60.4878 47.0298 60.0798V57.4761C47.0298 57.0681 47.3573 56.7407 47.7653 56.7407Z" fill="#435CDB"/>
<path d="M53.1982 56.7407H55.8019C56.2099 56.7407 56.5373 57.0681 56.5373 57.4761V60.0798C56.5373 60.4878 56.2099 60.8153 55.8019 60.8153H53.1982C52.7902 60.8153 52.4627 60.4878 52.4627 60.0798V57.4761C52.4627 57.0681 52.7902 56.7407 53.1982 56.7407Z" fill="#435CDB"/>
<path d="M58.631 56.7407H61.2347C61.6427 56.7407 61.9701 57.0681 61.9701 57.4761V60.0798C61.9701 60.4878 61.6427 60.8153 61.2347 60.8153H58.631C58.223 60.8153 57.8955 60.4878 57.8955 60.0798V57.4761C57.8955 57.0681 58.223 56.7407 58.631 56.7407Z" fill="#435CDB"/>
<path d="M64.0639 56.7407H66.6675C67.0755 56.7407 67.403 57.0681 67.403 57.4761V60.0798C67.403 60.4878 67.0755 60.8153 66.6675 60.8153H64.0639C63.6559 60.8153 63.3284 60.4878 63.3284 60.0798V57.4761C63.3284 57.0681 63.6559 56.7407 64.0639 56.7407Z" fill="#435CDB"/>
<path d="M69.4967 56.7407H72.1003C72.5083 56.7407 72.8358 57.0681 72.8358 57.4761V60.0798C72.8358 60.4878 72.5083 60.8153 72.1003 60.8153H69.4967C69.0887 60.8153 68.7612 60.4878 68.7612 60.0798V57.4761C68.7612 57.0681 69.0887 56.7407 69.4967 56.7407Z" fill="#435CDB"/>
<path d="M74.9295 56.7407H77.5332C77.9412 56.7407 78.2687 57.0681 78.2687 57.4761V60.0798C78.2687 60.4878 77.9412 60.8153 77.5332 60.8153H74.9295C74.5215 60.8153 74.1941 60.4878 74.1941 60.0798V57.4761C74.1941 57.0681 74.5215 56.7407 74.9295 56.7407Z" fill="#435CDB"/>
<path d="M80.3624 56.7407H82.9661C83.3741 56.7407 83.7015 57.0681 83.7015 57.4761V60.0798C83.7015 60.4878 83.3741 60.8153 82.9661 60.8153H80.3624C79.9544 60.8153 79.6269 60.4878 79.6269 60.0798V57.4761C79.6269 57.0681 79.9544 56.7407 80.3624 56.7407Z" fill="#435CDB"/>
<path d="M85.7952 56.7407H88.3988C88.8068 56.7407 89.1343 57.0681 89.1343 57.4761V60.0798C89.1343 60.4878 88.8068 60.8153 88.3988 60.8153H85.7952C85.3872 60.8153 85.0597 60.4878 85.0597 60.0798V57.4761C85.0597 57.0681 85.3872 56.7407 85.7952 56.7407Z" fill="#435CDB"/>
<path d="M91.228 56.7407H93.8317C94.2397 56.7407 94.5672 57.0681 94.5672 57.4761V60.0798C94.5672 60.4878 94.2397 60.8153 93.8317 60.8153H91.228C90.82 60.8153 90.4925 60.4878 90.4925 60.0798V57.4761C90.4925 57.0681 90.82 56.7407 91.228 56.7407Z" fill="#435CDB"/>
<path d="M31.4668 50.8551H34.0705C34.4785 50.8551 34.806 51.1826 34.806 51.5906V54.1943C34.806 54.6023 34.4785 54.9298 34.0705 54.9298H31.4668C31.0588 54.9298 30.7313 54.6023 30.7313 54.1943V51.5906C30.7313 51.1826 31.0588 50.8551 31.4668 50.8551Z" fill="#435CDB"/>
<path d="M36.8996 50.8551H39.5033C39.9113 50.8551 40.2388 51.1826 40.2388 51.5906V54.1943C40.2388 54.6023 39.9113 54.9298 39.5033 54.9298H36.8996C36.4916 54.9298 36.1642 54.6023 36.1642 54.1943V51.5906C36.1642 51.1826 36.4916 50.8551 36.8996 50.8551Z" fill="#435CDB"/>
<path d="M42.3325 50.8551H44.9362C45.3442 50.8551 45.6717 51.1826 45.6717 51.5906V54.1943C45.6717 54.6023 45.3442 54.9298 44.9362 54.9298H42.3325C41.9245 54.9298 41.597 54.6023 41.597 54.1943V51.5906C41.597 51.1826 41.9245 50.8551 42.3325 50.8551Z" fill="#435CDB"/>
<path d="M47.7653 50.8551H50.369C50.777 50.8551 51.1045 51.1826 51.1045 51.5906V54.1943C51.1045 54.6023 50.777 54.9298 50.369 54.9298H47.7653C47.3573 54.9298 47.0298 54.6023 47.0298 54.1943V51.5906C47.0298 51.1826 47.3573 50.8551 47.7653 50.8551Z" fill="#435CDB"/>
<path d="M53.1982 50.8551H55.8019C56.2099 50.8551 56.5373 51.1826 56.5373 51.5906V54.1943C56.5373 54.6023 56.2099 54.9298 55.8019 54.9298H53.1982C52.7902 54.9298 52.4627 54.6023 52.4627 54.1943V51.5906C52.4627 51.1826 52.7902 50.8551 53.1982 50.8551Z" fill="#435CDB"/>
<path d="M58.631 50.8551H61.2347C61.6427 50.8551 61.9701 51.1826 61.9701 51.5906V54.1943C61.9701 54.6023 61.6427 54.9298 61.2347 54.9298H58.631C58.223 54.9298 57.8955 54.6023 57.8955 54.1943V51.5906C57.8955 51.1826 58.223 50.8551 58.631 50.8551Z" fill="#435CDB"/>
<path d="M64.0639 50.8551H66.6675C67.0755 50.8551 67.403 51.1826 67.403 51.5906V54.1943C67.403 54.6023 67.0755 54.9298 66.6675 54.9298H64.0639C63.6559 54.9298 63.3284 54.6023 63.3284 54.1943V51.5906C63.3284 51.1826 63.6559 50.8551 64.0639 50.8551Z" fill="#435CDB"/>
<path d="M69.4967 50.8551H72.1003C72.5083 50.8551 72.8358 51.1826 72.8358 51.5906V54.1943C72.8358 54.6023 72.5083 54.9298 72.1003 54.9298H69.4967C69.0887 54.9298 68.7612 54.6023 68.7612 54.1943V51.5906C68.7612 51.1826 69.0887 50.8551 69.4967 50.8551Z" fill="#435CDB"/>
<path d="M74.9295 50.8551H77.5332C77.9412 50.8551 78.2687 51.1826 78.2687 51.5906V54.1943C78.2687 54.6023 77.9412 54.9298 77.5332 54.9298H74.9295C74.5215 54.9298 74.1941 54.6023 74.1941 54.1943V51.5906C74.1941 51.1826 74.5215 50.8551 74.9295 50.8551Z" fill="#435CDB"/>
<path d="M80.3623 50.8551H82.966C83.374 50.8551 83.7015 51.1826 83.7015 51.5906V54.1943C83.7015 54.6023 83.374 54.9298 82.966 54.9298H80.3623C79.9543 54.9298 79.6269 54.6023 79.6269 54.1943V51.5906C79.6269 51.1826 79.9543 50.8551 80.3623 50.8551Z" fill="#435CDB"/>
<path d="M85.7952 50.8551H88.3989C88.8069 50.8551 89.1343 51.1826 89.1343 51.5906V54.1943C89.1343 54.6023 88.8069 54.9298 88.3989 54.9298H85.7952C85.3872 54.9298 85.0597 54.6023 85.0597 54.1943V51.5906C85.0597 51.1826 85.3872 50.8551 85.7952 50.8551Z" fill="#435CDB"/>
<path d="M91.228 50.8551H93.8317C94.2397 50.8551 94.5672 51.1826 94.5672 51.5906V54.1943C94.5672 54.6023 94.2397 54.9298 93.8317 54.9298H91.228C90.82 54.9298 90.4925 54.6023 90.4925 54.1943V51.5906C90.4925 51.1826 90.82 50.8551 91.228 50.8551Z" fill="#435CDB"/>
<path d="M31.4668 44.9696H34.0705C34.4785 44.9696 34.806 45.297 34.806 45.705V48.3087C34.806 48.7167 34.4785 49.0442 34.0705 49.0442H31.4668C31.0588 49.0442 30.7313 48.7167 30.7313 48.3087V45.705C30.7313 45.297 31.0588 44.9696 31.4668 44.9696Z" fill="#435CDB"/>
<path d="M36.8997 44.9696H39.5033C39.9113 44.9696 40.2388 45.297 40.2388 45.705V48.3087C40.2388 48.7167 39.9113 49.0442 39.5033 49.0442H36.8997C36.4917 49.0442 36.1642 48.7167 36.1642 48.3087V45.705C36.1642 45.297 36.4917 44.9696 36.8997 44.9696Z" fill="#435CDB"/>
<path d="M42.3325 44.9696H44.9362C45.3442 44.9696 45.6716 45.297 45.6716 45.705V48.3087C45.6716 48.7167 45.3442 49.0442 44.9362 49.0442H42.3325C41.9245 49.0442 41.597 48.7167 41.597 48.3087V45.705C41.597 45.297 41.9245 44.9696 42.3325 44.9696Z" fill="#435CDB"/>
<path d="M47.7653 44.9696H50.369C50.777 44.9696 51.1045 45.297 51.1045 45.705V48.3087C51.1045 48.7167 50.777 49.0442 50.369 49.0442H47.7653C47.3573 49.0442 47.0299 48.7167 47.0299 48.3087V45.705C47.0299 45.297 47.3573 44.9696 47.7653 44.9696Z" fill="#435CDB"/>
<path d="M53.1982 44.9696H55.8018C56.2098 44.9696 56.5373 45.297 56.5373 45.705V48.3087C56.5373 48.7167 56.2098 49.0442 55.8018 49.0442H53.1982C52.7902 49.0442 52.4627 48.7167 52.4627 48.3087V45.705C52.4627 45.297 52.7902 44.9696 53.1982 44.9696Z" fill="#435CDB"/>
<path d="M58.631 44.9696H61.2347C61.6427 44.9696 61.9701 45.297 61.9701 45.705V48.3087C61.9701 48.7167 61.6427 49.0442 61.2347 49.0442H58.631C58.223 49.0442 57.8955 48.7167 57.8955 48.3087V45.705C57.8955 45.297 58.223 44.9696 58.631 44.9696Z" fill="#435CDB"/>
<path d="M64.0638 44.9696H66.6675C67.0755 44.9696 67.403 45.297 67.403 45.705V48.3087C67.403 48.7167 67.0755 49.0442 66.6675 49.0442H64.0638C63.6558 49.0442 63.3284 48.7167 63.3284 48.3087V45.705C63.3284 45.297 63.6558 44.9696 64.0638 44.9696Z" fill="#435CDB"/>
<path d="M69.4967 44.9696H72.1003C72.5083 44.9696 72.8358 45.297 72.8358 45.705V48.3087C72.8358 48.7167 72.5083 49.0442 72.1003 49.0442H69.4967C69.0887 49.0442 68.7612 48.7167 68.7612 48.3087V45.705C68.7612 45.297 69.0887 44.9696 69.4967 44.9696Z" fill="#435CDB"/>
<path d="M74.9295 44.9696H77.5332C77.9412 44.9696 78.2687 45.297 78.2687 45.705V48.3087C78.2687 48.7167 77.9412 49.0442 77.5332 49.0442H74.9295C74.5215 49.0442 74.194 48.7167 74.194 48.3087V45.705C74.194 45.297 74.5215 44.9696 74.9295 44.9696Z" fill="#435CDB"/>
<path d="M80.3623 44.9696H82.966C83.374 44.9696 83.7015 45.297 83.7015 45.705V48.3087C83.7015 48.7167 83.374 49.0442 82.966 49.0442H80.3623C79.9543 49.0442 79.6269 48.7167 79.6269 48.3087V45.705C79.6269 45.297 79.9543 44.9696 80.3623 44.9696Z" fill="#435CDB"/>
<path d="M85.7952 44.9696H88.3989C88.8069 44.9696 89.1343 45.297 89.1343 45.705V48.3087C89.1343 48.7167 88.8069 49.0442 88.3989 49.0442H85.7952C85.3872 49.0442 85.0597 48.7167 85.0597 48.3087V45.705C85.0597 45.297 85.3872 44.9696 85.7952 44.9696Z" fill="#435CDB"/>
<path d="M91.228 44.9696H93.8317C94.2397 44.9696 94.5672 45.297 94.5672 45.705V48.3087C94.5672 48.7167 94.2397 49.0442 93.8317 49.0442H91.228C90.82 49.0442 90.4925 48.7167 90.4925 48.3087V45.705C90.4925 45.297 90.82 44.9696 91.228 44.9696Z" fill="#435CDB"/>
<path d="M31.4668 39.084H34.0705C34.4785 39.084 34.8059 39.4115 34.8059 39.8195V42.4231C34.8059 42.8311 34.4785 43.1586 34.0705 43.1586H31.4668C31.0588 43.1586 30.7313 42.8311 30.7313 42.4231V39.8195C30.7313 39.4115 31.0588 39.084 31.4668 39.084Z" fill="#435CDB"/>
<path d="M36.8996 39.084H39.5033C39.9113 39.084 40.2388 39.4115 40.2388 39.8195V42.4231C40.2388 42.8311 39.9113 43.1586 39.5033 43.1586H36.8996C36.4916 43.1586 36.1642 42.8311 36.1642 42.4231V39.8195C36.1642 39.4115 36.4916 39.084 36.8996 39.084Z" fill="#435CDB"/>
<path d="M42.3325 39.084H44.9362C45.3442 39.084 45.6717 39.4115 45.6717 39.8195V42.4231C45.6717 42.8311 45.3442 43.1586 44.9362 43.1586H42.3325C41.9245 43.1586 41.597 42.8311 41.597 42.4231V39.8195C41.597 39.4115 41.9245 39.084 42.3325 39.084Z" fill="#435CDB"/>
<path d="M47.7653 39.084H50.369C50.777 39.084 51.1045 39.4115 51.1045 39.8195V42.4231C51.1045 42.8311 50.777 43.1586 50.369 43.1586H47.7653C47.3573 43.1586 47.0298 42.8311 47.0298 42.4231V39.8195C47.0298 39.4115 47.3573 39.084 47.7653 39.084Z" fill="#435CDB"/>
<path d="M53.1982 39.084H55.8019C56.2099 39.084 56.5373 39.4115 56.5373 39.8195V42.4231C56.5373 42.8311 56.2099 43.1586 55.8019 43.1586H53.1982C52.7902 43.1586 52.4627 42.8311 52.4627 42.4231V39.8195C52.4627 39.4115 52.7902 39.084 53.1982 39.084Z" fill="#435CDB"/>
<path d="M58.631 39.084H61.2347C61.6427 39.084 61.9701 39.4115 61.9701 39.8195V42.4231C61.9701 42.8311 61.6427 43.1586 61.2347 43.1586H58.631C58.223 43.1586 57.8955 42.8311 57.8955 42.4231V39.8195C57.8955 39.4115 58.223 39.084 58.631 39.084Z" fill="#435CDB"/>
<path d="M64.0639 39.084H66.6675C67.0755 39.084 67.403 39.4115 67.403 39.8195V42.4231C67.403 42.8311 67.0755 43.1586 66.6675 43.1586H64.0639C63.6559 43.1586 63.3284 42.8311 63.3284 42.4231V39.8195C63.3284 39.4115 63.6559 39.084 64.0639 39.084Z" fill="#435CDB"/>
<path d="M69.4967 39.084H72.1003C72.5083 39.084 72.8358 39.4115 72.8358 39.8195V42.4231C72.8358 42.8311 72.5083 43.1586 72.1003 43.1586H69.4967C69.0887 43.1586 68.7612 42.8311 68.7612 42.4231V39.8195C68.7612 39.4115 69.0887 39.084 69.4967 39.084Z" fill="#435CDB"/>
<path d="M74.9295 39.084H77.5332C77.9412 39.084 78.2687 39.4115 78.2687 39.8195V42.4231C78.2687 42.8311 77.9412 43.1586 77.5332 43.1586H74.9295C74.5215 43.1586 74.1941 42.8311 74.1941 42.4231V39.8195C74.1941 39.4115 74.5215 39.084 74.9295 39.084Z" fill="#435CDB"/>
<path d="M80.3624 39.084H82.9661C83.3741 39.084 83.7015 39.4115 83.7015 39.8195V42.4231C83.7015 42.8311 83.3741 43.1586 82.9661 43.1586H80.3624C79.9544 43.1586 79.6269 42.8311 79.6269 42.4231V39.8195C79.6269 39.4115 79.9544 39.084 80.3624 39.084Z" fill="#435CDB"/>
<path d="M85.7952 39.084H88.3988C88.8068 39.084 89.1343 39.4115 89.1343 39.8195V42.4231C89.1343 42.8311 88.8068 43.1586 88.3988 43.1586H85.7952C85.3872 43.1586 85.0597 42.8311 85.0597 42.4231V39.8195C85.0597 39.4115 85.3872 39.084 85.7952 39.084Z" fill="#435CDB"/>
<path d="M91.228 39.084H93.8317C94.2397 39.084 94.5672 39.4115 94.5672 39.8195V42.4231C94.5672 42.8311 94.2397 43.1586 93.8317 43.1586H91.228C90.82 43.1586 90.4925 42.8311 90.4925 42.4231V39.8195C90.4925 39.4115 90.82 39.084 91.228 39.084Z" fill="#435CDB"/>
<path d="M31.4668 33.1984H34.0705C34.4785 33.1984 34.8059 33.5258 34.8059 33.9338V36.5375C34.8059 36.9455 34.4785 37.273 34.0705 37.273H31.4668C31.0588 37.273 30.7313 36.9455 30.7313 36.5375V33.9338C30.7313 33.5258 31.0588 33.1984 31.4668 33.1984Z" fill="#435CDB"/>
<path d="M36.8996 33.1984H39.5033C39.9113 33.1984 40.2388 33.5258 40.2388 33.9338V36.5375C40.2388 36.9455 39.9113 37.273 39.5033 37.273H36.8996C36.4916 37.273 36.1642 36.9455 36.1642 36.5375V33.9338C36.1642 33.5258 36.4916 33.1984 36.8996 33.1984Z" fill="#435CDB"/>
<path d="M42.3325 33.1984H44.9362C45.3442 33.1984 45.6717 33.5258 45.6717 33.9338V36.5375C45.6717 36.9455 45.3442 37.273 44.9362 37.273H42.3325C41.9245 37.273 41.597 36.9455 41.597 36.5375V33.9338C41.597 33.5258 41.9245 33.1984 42.3325 33.1984Z" fill="#435CDB"/>
<path d="M47.7653 33.1984H50.369C50.777 33.1984 51.1045 33.5258 51.1045 33.9338V36.5375C51.1045 36.9455 50.777 37.273 50.369 37.273H47.7653C47.3573 37.273 47.0298 36.9455 47.0298 36.5375V33.9338C47.0298 33.5258 47.3573 33.1984 47.7653 33.1984Z" fill="#435CDB"/>
<path d="M53.1982 33.1984H55.8019C56.2099 33.1984 56.5373 33.5258 56.5373 33.9338V36.5375C56.5373 36.9455 56.2099 37.273 55.8019 37.273H53.1982C52.7902 37.273 52.4627 36.9455 52.4627 36.5375V33.9338C52.4627 33.5258 52.7902 33.1984 53.1982 33.1984Z" fill="#435CDB"/>
<path d="M58.631 33.1984H61.2347C61.6427 33.1984 61.9701 33.5258 61.9701 33.9338V36.5375C61.9701 36.9455 61.6427 37.273 61.2347 37.273H58.631C58.223 37.273 57.8955 36.9455 57.8955 36.5375V33.9338C57.8955 33.5258 58.223 33.1984 58.631 33.1984Z" fill="#435CDB"/>
<path d="M64.0639 33.1984H66.6675C67.0755 33.1984 67.403 33.5258 67.403 33.9338V36.5375C67.403 36.9455 67.0755 37.273 66.6675 37.273H64.0639C63.6559 37.273 63.3284 36.9455 63.3284 36.5375V33.9338C63.3284 33.5258 63.6559 33.1984 64.0639 33.1984Z" fill="#435CDB"/>
<path d="M69.4967 33.1984H72.1003C72.5083 33.1984 72.8358 33.5258 72.8358 33.9338V36.5375C72.8358 36.9455 72.5083 37.273 72.1003 37.273H69.4967C69.0887 37.273 68.7612 36.9455 68.7612 36.5375V33.9338C68.7612 33.5258 69.0887 33.1984 69.4967 33.1984Z" fill="#435CDB"/>
<path d="M74.9295 33.1984H77.5332C77.9412 33.1984 78.2687 33.5258 78.2687 33.9338V36.5375C78.2687 36.9455 77.9412 37.273 77.5332 37.273H74.9295C74.5215 37.273 74.1941 36.9455 74.1941 36.5375V33.9338C74.1941 33.5258 74.5215 33.1984 74.9295 33.1984Z" fill="#435CDB"/>
<path d="M80.3624 33.1984H82.9661C83.3741 33.1984 83.7015 33.5258 83.7015 33.9338V36.5375C83.7015 36.9455 83.3741 37.273 82.9661 37.273H80.3624C79.9544 37.273 79.6269 36.9455 79.6269 36.5375V33.9338C79.6269 33.5258 79.9544 33.1984 80.3624 33.1984Z" fill="#435CDB"/>
<path d="M85.7952 33.1984H88.3988C88.8068 33.1984 89.1343 33.5258 89.1343 33.9338V36.5375C89.1343 36.9455 88.8068 37.273 88.3988 37.273H85.7952C85.3872 37.273 85.0597 36.9455 85.0597 36.5375V33.9338C85.0597 33.5258 85.3872 33.1984 85.7952 33.1984Z" fill="#435CDB"/>
<path d="M91.228 33.1984H93.8317C94.2397 33.1984 94.5672 33.5258 94.5672 33.9338V36.5375C94.5672 36.9455 94.2397 37.273 93.8317 37.273H91.228C90.82 37.273 90.4925 36.9455 90.4925 36.5375V33.9338C90.4925 33.5258 90.82 33.1984 91.228 33.1984Z" fill="#435CDB"/>
<path d="M31.4668 27.3128H34.0705C34.4785 27.3128 34.8059 27.6403 34.8059 28.0483V30.6519C34.8059 31.0599 34.4785 31.3874 34.0705 31.3874H31.4668C31.0588 31.3874 30.7313 31.0599 30.7313 30.6519V28.0483C30.7313 27.6403 31.0588 27.3128 31.4668 27.3128Z" fill="#435CDB"/>
<path d="M36.8996 27.3128H39.5033C39.9113 27.3128 40.2388 27.6403 40.2388 28.0483V30.6519C40.2388 31.0599 39.9113 31.3874 39.5033 31.3874H36.8996C36.4916 31.3874 36.1642 31.0599 36.1642 30.6519V28.0483C36.1642 27.6403 36.4916 27.3128 36.8996 27.3128Z" fill="#435CDB"/>
<path d="M42.3325 27.3128H44.9362C45.3442 27.3128 45.6717 27.6403 45.6717 28.0483V30.6519C45.6717 31.0599 45.3442 31.3874 44.9362 31.3874H42.3325C41.9245 31.3874 41.597 31.0599 41.597 30.6519V28.0483C41.597 27.6403 41.9245 27.3128 42.3325 27.3128Z" fill="#435CDB"/>
<path d="M47.7653 27.3128H50.369C50.777 27.3128 51.1045 27.6403 51.1045 28.0483V30.6519C51.1045 31.0599 50.777 31.3874 50.369 31.3874H47.7653C47.3573 31.3874 47.0298 31.0599 47.0298 30.6519V28.0483C47.0298 27.6403 47.3573 27.3128 47.7653 27.3128Z" fill="#435CDB"/>
<path d="M53.1982 27.3128H55.8019C56.2099 27.3128 56.5373 27.6403 56.5373 28.0483V30.6519C56.5373 31.0599 56.2099 31.3874 55.8019 31.3874H53.1982C52.7902 31.3874 52.4627 31.0599 52.4627 30.6519V28.0483C52.4627 27.6403 52.7902 27.3128 53.1982 27.3128Z" fill="#435CDB"/>
<path d="M58.631 27.3128H61.2347C61.6427 27.3128 61.9701 27.6403 61.9701 28.0483V30.6519C61.9701 31.0599 61.6427 31.3874 61.2347 31.3874H58.631C58.223 31.3874 57.8955 31.0599 57.8955 30.6519V28.0483C57.8955 27.6403 58.223 27.3128 58.631 27.3128Z" fill="#435CDB"/>
<path d="M64.0639 27.3128H66.6675C67.0755 27.3128 67.403 27.6403 67.403 28.0483V30.6519C67.403 31.0599 67.0755 31.3874 66.6675 31.3874H64.0639C63.6559 31.3874 63.3284 31.0599 63.3284 30.6519V28.0483C63.3284 27.6403 63.6559 27.3128 64.0639 27.3128Z" fill="#435CDB"/>
<path d="M69.4967 27.3128H72.1003C72.5083 27.3128 72.8358 27.6403 72.8358 28.0483V30.6519C72.8358 31.0599 72.5083 31.3874 72.1003 31.3874H69.4967C69.0887 31.3874 68.7612 31.0599 68.7612 30.6519V28.0483C68.7612 27.6403 69.0887 27.3128 69.4967 27.3128Z" fill="#435CDB"/>
<path d="M74.9295 27.3128H77.5332C77.9412 27.3128 78.2687 27.6403 78.2687 28.0483V30.6519C78.2687 31.0599 77.9412 31.3874 77.5332 31.3874H74.9295C74.5215 31.3874 74.1941 31.0599 74.1941 30.6519V28.0483C74.1941 27.6403 74.5215 27.3128 74.9295 27.3128Z" fill="#435CDB"/>
<path d="M80.3624 27.3128H82.9661C83.3741 27.3128 83.7015 27.6403 83.7015 28.0483V30.6519C83.7015 31.0599 83.3741 31.3874 82.9661 31.3874H80.3624C79.9544 31.3874 79.6269 31.0599 79.6269 30.6519V28.0483C79.6269 27.6403 79.9544 27.3128 80.3624 27.3128Z" fill="#435CDB"/>
<path d="M85.7952 27.3128H88.3988C88.8068 27.3128 89.1343 27.6403 89.1343 28.0483V30.6519C89.1343 31.0599 88.8068 31.3874 88.3988 31.3874H85.7952C85.3872 31.3874 85.0597 31.0599 85.0597 30.6519V28.0483C85.0597 27.6403 85.3872 27.3128 85.7952 27.3128Z" fill="#435CDB"/>
<path d="M91.228 27.3128H93.8317C94.2397 27.3128 94.5672 27.6403 94.5672 28.0483V30.6519C94.5672 31.0599 94.2397 31.3874 93.8317 31.3874H91.228C90.82 31.3874 90.4925 31.0599 90.4925 30.6519V28.0483C90.4925 27.6403 90.82 27.3128 91.228 27.3128Z" fill="#435CDB"/>
<path d="M31.4668 21.4272H34.0705C34.4785 21.4272 34.8059 21.7547 34.8059 22.1627V24.7664C34.8059 25.1744 34.4785 25.5018 34.0705 25.5018H31.4668C31.0588 25.5018 30.7313 25.1744 30.7313 24.7664V22.1627C30.7313 21.7547 31.0588 21.4272 31.4668 21.4272Z" fill="#435CDB"/>
<path d="M36.8996 21.4272H39.5033C39.9113 21.4272 40.2388 21.7547 40.2388 22.1627V24.7664C40.2388 25.1744 39.9113 25.5018 39.5033 25.5018H36.8996C36.4916 25.5018 36.1642 25.1744 36.1642 24.7664V22.1627C36.1642 21.7547 36.4916 21.4272 36.8996 21.4272Z" fill="#435CDB"/>
<path d="M42.3325 21.4272H44.9362C45.3442 21.4272 45.6717 21.7547 45.6717 22.1627V24.7664C45.6717 25.1744 45.3442 25.5018 44.9362 25.5018H42.3325C41.9245 25.5018 41.597 25.1744 41.597 24.7664V22.1627C41.597 21.7547 41.9245 21.4272 42.3325 21.4272Z" fill="#435CDB"/>
<path d="M47.7653 21.4272H50.369C50.777 21.4272 51.1045 21.7547 51.1045 22.1627V24.7664C51.1045 25.1744 50.777 25.5018 50.369 25.5018H47.7653C47.3573 25.5018 47.0298 25.1744 47.0298 24.7664V22.1627C47.0298 21.7547 47.3573 21.4272 47.7653 21.4272Z" fill="#435CDB"/>
<path d="M53.1982 21.4272H55.8019C56.2099 21.4272 56.5373 21.7547 56.5373 22.1627V24.7664C56.5373 25.1744 56.2099 25.5018 55.8019 25.5018H53.1982C52.7902 25.5018 52.4627 25.1744 52.4627 24.7664V22.1627C52.4627 21.7547 52.7902 21.4272 53.1982 21.4272Z" fill="#435CDB"/>
<path d="M58.631 21.4272H61.2347C61.6427 21.4272 61.9701 21.7547 61.9701 22.1627V24.7664C61.9701 25.1744 61.6427 25.5018 61.2347 25.5018H58.631C58.223 25.5018 57.8955 25.1744 57.8955 24.7664V22.1627C57.8955 21.7547 58.223 21.4272 58.631 21.4272Z" fill="#435CDB"/>
<path d="M64.0639 21.4272H66.6675C67.0755 21.4272 67.403 21.7547 67.403 22.1627V24.7664C67.403 25.1744 67.0755 25.5018 66.6675 25.5018H64.0639C63.6559 25.5018 63.3284 25.1744 63.3284 24.7664V22.1627C63.3284 21.7547 63.6559 21.4272 64.0639 21.4272Z" fill="#435CDB"/>
<path d="M69.4967 21.4272H72.1003C72.5083 21.4272 72.8358 21.7547 72.8358 22.1627V24.7664C72.8358 25.1744 72.5083 25.5018 72.1003 25.5018H69.4967C69.0887 25.5018 68.7612 25.1744 68.7612 24.7664V22.1627C68.7612 21.7547 69.0887 21.4272 69.4967 21.4272Z" fill="#435CDB"/>
<path d="M74.9295 21.4272H77.5332C77.9412 21.4272 78.2687 21.7547 78.2687 22.1627V24.7664C78.2687 25.1744 77.9412 25.5018 77.5332 25.5018H74.9295C74.5215 25.5018 74.1941 25.1744 74.1941 24.7664V22.1627C74.1941 21.7547 74.5215 21.4272 74.9295 21.4272Z" fill="#435CDB"/>
<path d="M80.3624 21.4272H82.9661C83.3741 21.4272 83.7015 21.7547 83.7015 22.1627V24.7664C83.7015 25.1744 83.3741 25.5018 82.9661 25.5018H80.3624C79.9544 25.5018 79.6269 25.1744 79.6269 24.7664V22.1627C79.6269 21.7547 79.9544 21.4272 80.3624 21.4272Z" fill="#435CDB"/>
<path d="M85.7952 21.4272H88.3988C88.8068 21.4272 89.1343 21.7547 89.1343 22.1627V24.7664C89.1343 25.1744 88.8068 25.5018 88.3988 25.5018H85.7952C85.3872 25.5018 85.0597 25.1744 85.0597 24.7664V22.1627C85.0597 21.7547 85.3872 21.4272 85.7952 21.4272Z" fill="#435CDB"/>
<path d="M91.228 21.4272H93.8317C94.2397 21.4272 94.5672 21.7547 94.5672 22.1627V24.7664C94.5672 25.1744 94.2397 25.5018 93.8317 25.5018H91.228C90.82 25.5018 90.4925 25.1744 90.4925 24.7664V22.1627C90.4925 21.7547 90.82 21.4272 91.228 21.4272Z" fill="#435CDB"/>
<path d="M31.4668 15.5417H34.0705C34.4785 15.5417 34.806 15.8692 34.806 16.2772V18.8809C34.806 19.2889 34.4785 19.6163 34.0705 19.6163H31.4668C31.0588 19.6163 30.7313 19.2889 30.7313 18.8809V16.2772C30.7313 15.8692 31.0588 15.5417 31.4668 15.5417Z" fill="#435CDB"/>
<path d="M36.8997 15.5417H39.5033C39.9113 15.5417 40.2388 15.8692 40.2388 16.2772V18.8809C40.2388 19.2889 39.9113 19.6163 39.5033 19.6163H36.8997C36.4917 19.6163 36.1642 19.2889 36.1642 18.8809V16.2772C36.1642 15.8692 36.4917 15.5417 36.8997 15.5417Z" fill="#435CDB"/>
<path d="M42.3325 15.5417H44.9362C45.3442 15.5417 45.6716 15.8692 45.6716 16.2772V18.8809C45.6716 19.2889 45.3442 19.6163 44.9362 19.6163H42.3325C41.9245 19.6163 41.597 19.2889 41.597 18.8809V16.2772C41.597 15.8692 41.9245 15.5417 42.3325 15.5417Z" fill="#435CDB"/>
<path d="M47.7653 15.5417H50.369C50.777 15.5417 51.1045 15.8692 51.1045 16.2772V18.8809C51.1045 19.2889 50.777 19.6163 50.369 19.6163H47.7653C47.3573 19.6163 47.0299 19.2889 47.0299 18.8809V16.2772C47.0299 15.8692 47.3573 15.5417 47.7653 15.5417Z" fill="#435CDB"/>
<path d="M53.1982 15.5417H55.8018C56.2098 15.5417 56.5373 15.8692 56.5373 16.2772V18.8809C56.5373 19.2889 56.2098 19.6163 55.8018 19.6163H53.1982C52.7902 19.6163 52.4627 19.2889 52.4627 18.8809V16.2772C52.4627 15.8692 52.7902 15.5417 53.1982 15.5417Z" fill="#435CDB"/>
<path d="M58.631 15.5417H61.2347C61.6427 15.5417 61.9701 15.8692 61.9701 16.2772V18.8809C61.9701 19.2889 61.6427 19.6163 61.2347 19.6163H58.631C58.223 19.6163 57.8955 19.2889 57.8955 18.8809V16.2772C57.8955 15.8692 58.223 15.5417 58.631 15.5417Z" fill="#435CDB"/>
<path d="M64.0638 15.5417H66.6675C67.0755 15.5417 67.403 15.8692 67.403 16.2772V18.8809C67.403 19.2889 67.0755 19.6163 66.6675 19.6163H64.0638C63.6558 19.6163 63.3284 19.2889 63.3284 18.8809V16.2772C63.3284 15.8692 63.6558 15.5417 64.0638 15.5417Z" fill="#435CDB"/>
<path d="M69.4967 15.5417H72.1003C72.5083 15.5417 72.8358 15.8692 72.8358 16.2772V18.8809C72.8358 19.2889 72.5083 19.6163 72.1003 19.6163H69.4967C69.0887 19.6163 68.7612 19.2889 68.7612 18.8809V16.2772C68.7612 15.8692 69.0887 15.5417 69.4967 15.5417Z" fill="#435CDB"/>
<path d="M74.9295 15.5417H77.5332C77.9412 15.5417 78.2687 15.8692 78.2687 16.2772V18.8809C78.2687 19.2889 77.9412 19.6163 77.5332 19.6163H74.9295C74.5215 19.6163 74.194 19.2889 74.194 18.8809V16.2772C74.194 15.8692 74.5215 15.5417 74.9295 15.5417Z" fill="#435CDB"/>
<path d="M80.3623 15.5417H82.966C83.374 15.5417 83.7015 15.8692 83.7015 16.2772V18.8809C83.7015 19.2889 83.374 19.6163 82.966 19.6163H80.3623C79.9543 19.6163 79.6269 19.2889 79.6269 18.8809V16.2772C79.6269 15.8692 79.9543 15.5417 80.3623 15.5417Z" fill="#435CDB"/>
<path d="M85.7952 15.5417H88.3989C88.8069 15.5417 89.1343 15.8692 89.1343 16.2772V18.8809C89.1343 19.2889 88.8069 19.6163 88.3989 19.6163H85.7952C85.3872 19.6163 85.0597 19.2889 85.0597 18.8809V16.2772C85.0597 15.8692 85.3872 15.5417 85.7952 15.5417Z" fill="#435CDB"/>
<path d="M91.228 15.5417H93.8317C94.2397 15.5417 94.5672 15.8692 94.5672 16.2772V18.8809C94.5672 19.2889 94.2397 19.6163 93.8317 19.6163H91.228C90.82 19.6163 90.4925 19.2889 90.4925 18.8809V16.2772C90.4925 15.8692 90.82 15.5417 91.228 15.5417Z" fill="#435CDB"/>
</mask>
<g mask="url(#mask0_1_2)">
<path fill-rule="evenodd" clip-rule="evenodd" d="M30 56.3703H51.5C54.9833 56.3703 57.5 61 57.5 61H63H68.5C68.6302 60.7508 68.7553 60.5054 68.8778 60.2651L68.8779 60.2649C70.094 57.8798 71.0524 56 74.1209 56H80.5934L75.5525 47.4196L69.4161 52.9749C68.6294 53.5755 68 53.2752 68 52.5245V27L89.7134 42.0144C90.3428 42.4648 89.8708 44.4167 88.9267 44.4167H81.5315L87.1959 53.7256C87.636 54.4255 87.3923 55.3864 86.5923 56H95V53.1111V15H73.6667C66.5555 15 63 20.0815 63 25.8889C63 20.0815 59.3333 15 52 15H30V56.3703Z" fill="#ccd4e0"/>
</g>
</g>
</g>
</g>
<defs>
<clipPath id="clip0_1_2">
<rect width="149" height="76" fill="white"/>
</clipPath>
<clipPath id="clip1_1_2">
<rect width="149" height="76" fill="white"/>
</clipPath>
<clipPath id="clip2_1_2">
<rect width="65" height="46" fill="white" transform="translate(30 15)"/>
</clipPath>
</defs>
</svg>