<svg width="44" height="40" viewBox="0 0 44 40" fill="none" xmlns="http://www.w3.org/2000/svg">
<g clip-path="url(#clip0_1760_331964)">
<path fill-rule="evenodd" clip-rule="evenodd" d="M21.897 13.5727C12.8213 13.5727 5.46397 20.8555 5.46397 29.8394V31.4798C5.46397 33.6188 7.21571 35.3528 9.37659 35.3528H10.6142C11.8919 35.3528 12.9349 34.3414 12.9612 33.0768L12.9787 32.2385C12.9845 31.957 13.1442 31.7008 13.3957 31.5694C13.6472 31.438 13.951 31.452 14.1891 31.606L15.4761 32.4385C19.3771 34.9619 24.4168 34.9619 28.3179 32.4385L29.6049 31.606C29.843 31.452 30.1467 31.438 30.3982 31.5694C30.6497 31.7008 30.8094 31.957 30.8153 32.2385L30.8327 33.0768C30.859 34.3414 31.9021 35.3528 33.1798 35.3528H34.4174C36.5782 35.3528 38.33 33.6188 38.33 31.4798V29.8394C38.33 20.8555 30.9727 13.5727 21.897 13.5727ZM3.89893 29.8394C3.89893 19.9999 11.9569 12.0234 21.897 12.0234C31.837 12.0234 39.895 19.9999 39.895 29.8394V31.4798C39.895 34.4744 37.4426 36.9021 34.4174 36.9021H33.1798C31.2338 36.9021 29.6143 35.4942 29.3162 33.6433L29.174 33.7353C24.7528 36.5952 19.0412 36.5952 14.6199 33.7353L14.4777 33.6433C14.1796 35.4942 12.5602 36.9021 10.6142 36.9021H9.37659C6.35136 36.9021 3.89893 34.4744 3.89893 31.4798V29.8394Z" fill="white"/>
<path fill-rule="evenodd" clip-rule="evenodd" d="M21.1147 9.28976C9.80845 9.69725 0.769043 18.8987 0.769043 30.1901V32.2595C0.769043 36.1097 3.92217 39.2309 7.81176 39.2309H35.9826C39.8722 39.2309 43.0253 36.1097 43.0253 32.2595V30.1901C43.0253 18.8987 33.9859 9.69725 22.6797 9.28976V6.19336H21.1147V9.28976ZM21.8972 10.8249C11.0928 10.8249 2.33409 19.495 2.33409 30.1901V32.2595C2.33409 35.2541 4.78653 37.6817 7.81176 37.6817H35.9826C39.0079 37.6817 41.4603 35.2541 41.4603 32.2595V30.1901C41.4603 19.495 32.7016 10.8249 21.8972 10.8249Z" fill="white"/>
<path fill-rule="evenodd" clip-rule="evenodd" d="M21.8987 2.31875C21.0343 2.31875 20.3336 3.01236 20.3336 3.86797C20.3336 4.72358 21.0343 5.41718 21.8987 5.41718C22.763 5.41718 23.4637 4.72358 23.4637 3.86797C23.4637 3.01236 22.763 2.31875 21.8987 2.31875ZM18.7686 3.86797C18.7686 2.15675 20.1699 0.769531 21.8987 0.769531C23.6274 0.769531 25.0288 2.15675 25.0288 3.86797C25.0288 5.57919 23.6274 6.9664 21.8987 6.9664C20.1699 6.9664 18.7686 5.57919 18.7686 3.86797Z" fill="white"/>
<ellipse cx="14.6586" cy="25.3408" rx="2.13666" ry="2.13666" fill="white"/>
<ellipse cx="29.6157" cy="25.3408" rx="2.13665" ry="2.13666" fill="white"/>
</g>
<defs>
<clipPath id="clip0_1760_331964">
<rect width="43.8462" height="40" fill="white"/>
</clipPath>
</defs>
</svg>
