<svg width="149" height="76" viewBox="0 0 149 76" fill="none" xmlns="http://www.w3.org/2000/svg">
<g clip-path="url(#clip0_1_2)">
<g clip-path="url(#clip1_1_2)">
<circle opacity="0.5" cx="86.5" cy="86.5" r="86.5" transform="matrix(-1 0 0 1 149 -49)" fill="#85FFD0"/>
<path d="M61 115C104.63 115 140 79.9533 140 36.7211M134.513 8.00001C136.108 12.005 137.379 16.1717 138.295 20.4683" stroke="white" stroke-width="3" stroke-linecap="round"/>
</g>
<g clip-path="url(#clip2_1_2)">
<mask id="mask0_1_2" style="mask-type:alpha" maskUnits="userSpaceOnUse" x="20" y="-9" width="91" height="94">
<path d="M31.6012 56.7405H34.2048C34.6128 56.7405 34.9403 57.068 34.9403 57.476V60.0797C34.9403 60.4877 34.6128 60.8152 34.2048 60.8152H31.6012C31.1932 60.8152 30.8657 60.4877 30.8657 60.0797V57.476C30.8657 57.068 31.1932 56.7405 31.6012 56.7405Z" fill="#435CDB"/>
<path d="M37.034 56.7405H39.6377C40.0457 56.7405 40.3732 57.068 40.3732 57.476V60.0797C40.3732 60.4877 40.0457 60.8152 39.6377 60.8152H37.034C36.626 60.8152 36.2985 60.4877 36.2985 60.0797V57.476C36.2985 57.068 36.626 56.7405 37.034 56.7405Z" fill="#435CDB"/>
<path d="M42.4668 56.7405H45.0705C45.4785 56.7405 45.8059 57.068 45.8059 57.476V60.0797C45.8059 60.4877 45.4785 60.8152 45.0705 60.8152H42.4668C42.0588 60.8152 41.7313 60.4877 41.7313 60.0797V57.476C41.7313 57.068 42.0588 56.7405 42.4668 56.7405Z" fill="#435CDB"/>
<path d="M47.8996 56.7405H50.5033C50.9113 56.7405 51.2388 57.068 51.2388 57.476V60.0797C51.2388 60.4877 50.9113 60.8152 50.5033 60.8152H47.8996C47.4916 60.8152 47.1642 60.4877 47.1642 60.0797V57.476C47.1642 57.068 47.4916 56.7405 47.8996 56.7405Z" fill="#435CDB"/>
<path d="M53.3325 56.7405H55.9362C56.3442 56.7405 56.6717 57.068 56.6717 57.476V60.0797C56.6717 60.4877 56.3442 60.8152 55.9362 60.8152H53.3325C52.9245 60.8152 52.597 60.4877 52.597 60.0797V57.476C52.597 57.068 52.9245 56.7405 53.3325 56.7405Z" fill="#435CDB"/>
<path d="M58.7653 56.7405H61.369C61.777 56.7405 62.1045 57.068 62.1045 57.476V60.0797C62.1045 60.4877 61.777 60.8152 61.369 60.8152H58.7653C58.3573 60.8152 58.0298 60.4877 58.0298 60.0797V57.476C58.0298 57.068 58.3573 56.7405 58.7653 56.7405Z" fill="#435CDB"/>
<path d="M64.1982 56.7405H66.8019C67.2099 56.7405 67.5373 57.068 67.5373 57.476V60.0797C67.5373 60.4877 67.2099 60.8152 66.8019 60.8152H64.1982C63.7902 60.8152 63.4627 60.4877 63.4627 60.0797V57.476C63.4627 57.068 63.7902 56.7405 64.1982 56.7405Z" fill="#435CDB"/>
<path d="M69.631 56.7405H72.2347C72.6427 56.7405 72.9701 57.068 72.9701 57.476V60.0797C72.9701 60.4877 72.6427 60.8152 72.2347 60.8152H69.631C69.223 60.8152 68.8955 60.4877 68.8955 60.0797V57.476C68.8955 57.068 69.223 56.7405 69.631 56.7405Z" fill="#435CDB"/>
<path d="M75.0639 56.7405H77.6675C78.0755 56.7405 78.403 57.068 78.403 57.476V60.0797C78.403 60.4877 78.0755 60.8152 77.6675 60.8152H75.0639C74.6559 60.8152 74.3284 60.4877 74.3284 60.0797V57.476C74.3284 57.068 74.6559 56.7405 75.0639 56.7405Z" fill="#435CDB"/>
<path d="M80.4967 56.7405H83.1003C83.5083 56.7405 83.8358 57.068 83.8358 57.476V60.0797C83.8358 60.4877 83.5083 60.8152 83.1003 60.8152H80.4967C80.0887 60.8152 79.7612 60.4877 79.7612 60.0797V57.476C79.7612 57.068 80.0887 56.7405 80.4967 56.7405Z" fill="#435CDB"/>
<path d="M85.9295 56.7405H88.5332C88.9412 56.7405 89.2687 57.068 89.2687 57.476V60.0797C89.2687 60.4877 88.9412 60.8152 88.5332 60.8152H85.9295C85.5215 60.8152 85.1941 60.4877 85.1941 60.0797V57.476C85.1941 57.068 85.5215 56.7405 85.9295 56.7405Z" fill="#435CDB"/>
<path d="M91.3624 56.7405H93.9661C94.3741 56.7405 94.7015 57.068 94.7015 57.476V60.0797C94.7015 60.4877 94.3741 60.8152 93.9661 60.8152H91.3624C90.9544 60.8152 90.6269 60.4877 90.6269 60.0797V57.476C90.6269 57.068 90.9544 56.7405 91.3624 56.7405Z" fill="#435CDB"/>
<path d="M31.6012 50.855H34.2048C34.6128 50.855 34.9403 51.1825 34.9403 51.5905V54.1942C34.9403 54.6022 34.6128 54.9296 34.2048 54.9296H31.6012C31.1932 54.9296 30.8657 54.6022 30.8657 54.1942V51.5905C30.8657 51.1825 31.1932 50.855 31.6012 50.855Z" fill="#435CDB"/>
<path d="M37.034 50.855H39.6376C40.0456 50.855 40.3731 51.1825 40.3731 51.5905V54.1942C40.3731 54.6022 40.0456 54.9296 39.6376 54.9296H37.034C36.626 54.9296 36.2985 54.6022 36.2985 54.1942V51.5905C36.2985 51.1825 36.626 50.855 37.034 50.855Z" fill="#435CDB"/>
<path d="M42.4668 50.855H45.0705C45.4785 50.855 45.806 51.1825 45.806 51.5905V54.1942C45.806 54.6022 45.4785 54.9296 45.0705 54.9296H42.4668C42.0588 54.9296 41.7313 54.6022 41.7313 54.1942V51.5905C41.7313 51.1825 42.0588 50.855 42.4668 50.855Z" fill="#435CDB"/>
<path d="M47.8996 50.855H50.5033C50.9113 50.855 51.2388 51.1825 51.2388 51.5905V54.1942C51.2388 54.6022 50.9113 54.9296 50.5033 54.9296H47.8996C47.4916 54.9296 47.1642 54.6022 47.1642 54.1942V51.5905C47.1642 51.1825 47.4916 50.855 47.8996 50.855Z" fill="#435CDB"/>
<path d="M53.3325 50.855H55.9362C56.3442 50.855 56.6717 51.1825 56.6717 51.5905V54.1942C56.6717 54.6022 56.3442 54.9296 55.9362 54.9296H53.3325C52.9245 54.9296 52.597 54.6022 52.597 54.1942V51.5905C52.597 51.1825 52.9245 50.855 53.3325 50.855Z" fill="#435CDB"/>
<path d="M58.7653 50.855H61.369C61.777 50.855 62.1045 51.1825 62.1045 51.5905V54.1942C62.1045 54.6022 61.777 54.9296 61.369 54.9296H58.7653C58.3573 54.9296 58.0298 54.6022 58.0298 54.1942V51.5905C58.0298 51.1825 58.3573 50.855 58.7653 50.855Z" fill="#435CDB"/>
<path d="M64.1982 50.855H66.8019C67.2099 50.855 67.5373 51.1825 67.5373 51.5905V54.1942C67.5373 54.6022 67.2099 54.9296 66.8019 54.9296H64.1982C63.7902 54.9296 63.4627 54.6022 63.4627 54.1942V51.5905C63.4627 51.1825 63.7902 50.855 64.1982 50.855Z" fill="#435CDB"/>
<path d="M69.631 50.855H72.2347C72.6427 50.855 72.9701 51.1825 72.9701 51.5905V54.1942C72.9701 54.6022 72.6427 54.9296 72.2347 54.9296H69.631C69.223 54.9296 68.8955 54.6022 68.8955 54.1942V51.5905C68.8955 51.1825 69.223 50.855 69.631 50.855Z" fill="#435CDB"/>
<path d="M75.0639 50.855H77.6675C78.0755 50.855 78.403 51.1825 78.403 51.5905V54.1942C78.403 54.6022 78.0755 54.9296 77.6675 54.9296H75.0639C74.6559 54.9296 74.3284 54.6022 74.3284 54.1942V51.5905C74.3284 51.1825 74.6559 50.855 75.0639 50.855Z" fill="#435CDB"/>
<path d="M80.4967 50.855H83.1003C83.5083 50.855 83.8358 51.1825 83.8358 51.5905V54.1942C83.8358 54.6022 83.5083 54.9296 83.1003 54.9296H80.4967C80.0887 54.9296 79.7612 54.6022 79.7612 54.1942V51.5905C79.7612 51.1825 80.0887 50.855 80.4967 50.855Z" fill="#435CDB"/>
<path d="M85.9295 50.855H88.5332C88.9412 50.855 89.2687 51.1825 89.2687 51.5905V54.1942C89.2687 54.6022 88.9412 54.9296 88.5332 54.9296H85.9295C85.5215 54.9296 85.1941 54.6022 85.1941 54.1942V51.5905C85.1941 51.1825 85.5215 50.855 85.9295 50.855Z" fill="#435CDB"/>
<path d="M91.3623 50.855H93.966C94.374 50.855 94.7015 51.1825 94.7015 51.5905V54.1942C94.7015 54.6022 94.374 54.9296 93.966 54.9296H91.3623C90.9543 54.9296 90.6269 54.6022 90.6269 54.1942V51.5905C90.6269 51.1825 90.9543 50.855 91.3623 50.855Z" fill="#435CDB"/>
<path d="M31.6011 44.9694H34.2048C34.6128 44.9694 34.9403 45.2969 34.9403 45.7049V48.3086C34.9403 48.7166 34.6128 49.0441 34.2048 49.0441H31.6011C31.1931 49.0441 30.8657 48.7166 30.8657 48.3086V45.7049C30.8657 45.2969 31.1931 44.9694 31.6011 44.9694Z" fill="#435CDB"/>
<path d="M37.034 44.9694H39.6377C40.0457 44.9694 40.3731 45.2969 40.3731 45.7049V48.3086C40.3731 48.7166 40.0457 49.0441 39.6377 49.0441H37.034C36.626 49.0441 36.2985 48.7166 36.2985 48.3086V45.7049C36.2985 45.2969 36.626 44.9694 37.034 44.9694Z" fill="#435CDB"/>
<path d="M42.4668 44.9694H45.0705C45.4785 44.9694 45.806 45.2969 45.806 45.7049V48.3086C45.806 48.7166 45.4785 49.0441 45.0705 49.0441H42.4668C42.0588 49.0441 41.7313 48.7166 41.7313 48.3086V45.7049C41.7313 45.2969 42.0588 44.9694 42.4668 44.9694Z" fill="#435CDB"/>
<path d="M47.8997 44.9694H50.5033C50.9113 44.9694 51.2388 45.2969 51.2388 45.7049V48.3086C51.2388 48.7166 50.9113 49.0441 50.5033 49.0441H47.8997C47.4917 49.0441 47.1642 48.7166 47.1642 48.3086V45.7049C47.1642 45.2969 47.4917 44.9694 47.8997 44.9694Z" fill="#435CDB"/>
<path d="M53.3325 44.9694H55.9362C56.3442 44.9694 56.6716 45.2969 56.6716 45.7049V48.3086C56.6716 48.7166 56.3442 49.0441 55.9362 49.0441H53.3325C52.9245 49.0441 52.597 48.7166 52.597 48.3086V45.7049C52.597 45.2969 52.9245 44.9694 53.3325 44.9694Z" fill="#435CDB"/>
<path d="M58.7653 44.9694H61.369C61.777 44.9694 62.1045 45.2969 62.1045 45.7049V48.3086C62.1045 48.7166 61.777 49.0441 61.369 49.0441H58.7653C58.3573 49.0441 58.0299 48.7166 58.0299 48.3086V45.7049C58.0299 45.2969 58.3573 44.9694 58.7653 44.9694Z" fill="#435CDB"/>
<path d="M64.1982 44.9694H66.8018C67.2098 44.9694 67.5373 45.2969 67.5373 45.7049V48.3086C67.5373 48.7166 67.2098 49.0441 66.8018 49.0441H64.1982C63.7902 49.0441 63.4627 48.7166 63.4627 48.3086V45.7049C63.4627 45.2969 63.7902 44.9694 64.1982 44.9694Z" fill="#435CDB"/>
<path d="M69.631 44.9694H72.2347C72.6427 44.9694 72.9701 45.2969 72.9701 45.7049V48.3086C72.9701 48.7166 72.6427 49.0441 72.2347 49.0441H69.631C69.223 49.0441 68.8955 48.7166 68.8955 48.3086V45.7049C68.8955 45.2969 69.223 44.9694 69.631 44.9694Z" fill="#435CDB"/>
<path d="M75.0638 44.9694H77.6675C78.0755 44.9694 78.403 45.2969 78.403 45.7049V48.3086C78.403 48.7166 78.0755 49.0441 77.6675 49.0441H75.0638C74.6558 49.0441 74.3284 48.7166 74.3284 48.3086V45.7049C74.3284 45.2969 74.6558 44.9694 75.0638 44.9694Z" fill="#435CDB"/>
<path d="M80.4967 44.9694H83.1003C83.5083 44.9694 83.8358 45.2969 83.8358 45.7049V48.3086C83.8358 48.7166 83.5083 49.0441 83.1003 49.0441H80.4967C80.0887 49.0441 79.7612 48.7166 79.7612 48.3086V45.7049C79.7612 45.2969 80.0887 44.9694 80.4967 44.9694Z" fill="#435CDB"/>
<path d="M85.9295 44.9694H88.5332C88.9412 44.9694 89.2687 45.2969 89.2687 45.7049V48.3086C89.2687 48.7166 88.9412 49.0441 88.5332 49.0441H85.9295C85.5215 49.0441 85.194 48.7166 85.194 48.3086V45.7049C85.194 45.2969 85.5215 44.9694 85.9295 44.9694Z" fill="#435CDB"/>
<path d="M91.3623 44.9694H93.966C94.374 44.9694 94.7015 45.2969 94.7015 45.7049V48.3086C94.7015 48.7166 94.374 49.0441 93.966 49.0441H91.3623C90.9543 49.0441 90.6269 48.7166 90.6269 48.3086V45.7049C90.6269 45.2969 90.9543 44.9694 91.3623 44.9694Z" fill="#435CDB"/>
<path d="M31.6012 39.0839H34.2048C34.6128 39.0839 34.9403 39.4113 34.9403 39.8193V42.423C34.9403 42.831 34.6128 43.1585 34.2048 43.1585H31.6012C31.1932 43.1585 30.8657 42.831 30.8657 42.423V39.8193C30.8657 39.4113 31.1932 39.0839 31.6012 39.0839Z" fill="#435CDB"/>
<path d="M37.034 39.0839H39.6377C40.0457 39.0839 40.3732 39.4113 40.3732 39.8193V42.423C40.3732 42.831 40.0457 43.1585 39.6377 43.1585H37.034C36.626 43.1585 36.2985 42.831 36.2985 42.423V39.8193C36.2985 39.4113 36.626 39.0839 37.034 39.0839Z" fill="#435CDB"/>
<path d="M42.4668 39.0839H45.0705C45.4785 39.0839 45.8059 39.4113 45.8059 39.8193V42.423C45.8059 42.831 45.4785 43.1585 45.0705 43.1585H42.4668C42.0588 43.1585 41.7313 42.831 41.7313 42.423V39.8193C41.7313 39.4113 42.0588 39.0839 42.4668 39.0839Z" fill="#435CDB"/>
<path d="M47.8996 39.0839H50.5033C50.9113 39.0839 51.2388 39.4113 51.2388 39.8193V42.423C51.2388 42.831 50.9113 43.1585 50.5033 43.1585H47.8996C47.4916 43.1585 47.1642 42.831 47.1642 42.423V39.8193C47.1642 39.4113 47.4916 39.0839 47.8996 39.0839Z" fill="#435CDB"/>
<path d="M53.3325 39.0839H55.9362C56.3442 39.0839 56.6717 39.4113 56.6717 39.8193V42.423C56.6717 42.831 56.3442 43.1585 55.9362 43.1585H53.3325C52.9245 43.1585 52.597 42.831 52.597 42.423V39.8193C52.597 39.4113 52.9245 39.0839 53.3325 39.0839Z" fill="#435CDB"/>
<path d="M58.7653 39.0839H61.369C61.777 39.0839 62.1045 39.4113 62.1045 39.8193V42.423C62.1045 42.831 61.777 43.1585 61.369 43.1585H58.7653C58.3573 43.1585 58.0298 42.831 58.0298 42.423V39.8193C58.0298 39.4113 58.3573 39.0839 58.7653 39.0839Z" fill="#435CDB"/>
<path d="M64.1982 39.0839H66.8019C67.2099 39.0839 67.5373 39.4113 67.5373 39.8193V42.423C67.5373 42.831 67.2099 43.1585 66.8019 43.1585H64.1982C63.7902 43.1585 63.4627 42.831 63.4627 42.423V39.8193C63.4627 39.4113 63.7902 39.0839 64.1982 39.0839Z" fill="#435CDB"/>
<path d="M69.631 39.0839H72.2347C72.6427 39.0839 72.9701 39.4113 72.9701 39.8193V42.423C72.9701 42.831 72.6427 43.1585 72.2347 43.1585H69.631C69.223 43.1585 68.8955 42.831 68.8955 42.423V39.8193C68.8955 39.4113 69.223 39.0839 69.631 39.0839Z" fill="#435CDB"/>
<path d="M75.0639 39.0839H77.6675C78.0755 39.0839 78.403 39.4113 78.403 39.8193V42.423C78.403 42.831 78.0755 43.1585 77.6675 43.1585H75.0639C74.6559 43.1585 74.3284 42.831 74.3284 42.423V39.8193C74.3284 39.4113 74.6559 39.0839 75.0639 39.0839Z" fill="#435CDB"/>
<path d="M80.4967 39.0839H83.1003C83.5083 39.0839 83.8358 39.4113 83.8358 39.8193V42.423C83.8358 42.831 83.5083 43.1585 83.1003 43.1585H80.4967C80.0887 43.1585 79.7612 42.831 79.7612 42.423V39.8193C79.7612 39.4113 80.0887 39.0839 80.4967 39.0839Z" fill="#435CDB"/>
<path d="M85.9295 39.0839H88.5332C88.9412 39.0839 89.2687 39.4113 89.2687 39.8193V42.423C89.2687 42.831 88.9412 43.1585 88.5332 43.1585H85.9295C85.5215 43.1585 85.1941 42.831 85.1941 42.423V39.8193C85.1941 39.4113 85.5215 39.0839 85.9295 39.0839Z" fill="#435CDB"/>
<path d="M91.3624 39.0839H93.9661C94.3741 39.0839 94.7015 39.4113 94.7015 39.8193V42.423C94.7015 42.831 94.3741 43.1585 93.9661 43.1585H91.3624C90.9544 43.1585 90.6269 42.831 90.6269 42.423V39.8193C90.6269 39.4113 90.9544 39.0839 91.3624 39.0839Z" fill="#435CDB"/>
<path d="M31.6012 33.1983H34.2048C34.6128 33.1983 34.9403 33.5257 34.9403 33.9337V36.5374C34.9403 36.9454 34.6128 37.2729 34.2048 37.2729H31.6012C31.1932 37.2729 30.8657 36.9454 30.8657 36.5374V33.9337C30.8657 33.5257 31.1932 33.1983 31.6012 33.1983Z" fill="#435CDB"/>
<path d="M37.034 33.1983H39.6377C40.0457 33.1983 40.3732 33.5257 40.3732 33.9337V36.5374C40.3732 36.9454 40.0457 37.2729 39.6377 37.2729H37.034C36.626 37.2729 36.2985 36.9454 36.2985 36.5374V33.9337C36.2985 33.5257 36.626 33.1983 37.034 33.1983Z" fill="#435CDB"/>
<path d="M42.4668 33.1983H45.0705C45.4785 33.1983 45.8059 33.5257 45.8059 33.9337V36.5374C45.8059 36.9454 45.4785 37.2729 45.0705 37.2729H42.4668C42.0588 37.2729 41.7313 36.9454 41.7313 36.5374V33.9337C41.7313 33.5257 42.0588 33.1983 42.4668 33.1983Z" fill="#435CDB"/>
<path d="M47.8996 33.1983H50.5033C50.9113 33.1983 51.2388 33.5257 51.2388 33.9337V36.5374C51.2388 36.9454 50.9113 37.2729 50.5033 37.2729H47.8996C47.4916 37.2729 47.1642 36.9454 47.1642 36.5374V33.9337C47.1642 33.5257 47.4916 33.1983 47.8996 33.1983Z" fill="#435CDB"/>
<path d="M53.3325 33.1983H55.9362C56.3442 33.1983 56.6717 33.5257 56.6717 33.9337V36.5374C56.6717 36.9454 56.3442 37.2729 55.9362 37.2729H53.3325C52.9245 37.2729 52.597 36.9454 52.597 36.5374V33.9337C52.597 33.5257 52.9245 33.1983 53.3325 33.1983Z" fill="#435CDB"/>
<path d="M58.7653 33.1983H61.369C61.777 33.1983 62.1045 33.5257 62.1045 33.9337V36.5374C62.1045 36.9454 61.777 37.2729 61.369 37.2729H58.7653C58.3573 37.2729 58.0298 36.9454 58.0298 36.5374V33.9337C58.0298 33.5257 58.3573 33.1983 58.7653 33.1983Z" fill="#435CDB"/>
<path d="M64.1982 33.1983H66.8019C67.2099 33.1983 67.5373 33.5257 67.5373 33.9337V36.5374C67.5373 36.9454 67.2099 37.2729 66.8019 37.2729H64.1982C63.7902 37.2729 63.4627 36.9454 63.4627 36.5374V33.9337C63.4627 33.5257 63.7902 33.1983 64.1982 33.1983Z" fill="#435CDB"/>
<path d="M69.631 33.1983H72.2347C72.6427 33.1983 72.9701 33.5257 72.9701 33.9337V36.5374C72.9701 36.9454 72.6427 37.2729 72.2347 37.2729H69.631C69.223 37.2729 68.8955 36.9454 68.8955 36.5374V33.9337C68.8955 33.5257 69.223 33.1983 69.631 33.1983Z" fill="#435CDB"/>
<path d="M75.0639 33.1983H77.6675C78.0755 33.1983 78.403 33.5257 78.403 33.9337V36.5374C78.403 36.9454 78.0755 37.2729 77.6675 37.2729H75.0639C74.6559 37.2729 74.3284 36.9454 74.3284 36.5374V33.9337C74.3284 33.5257 74.6559 33.1983 75.0639 33.1983Z" fill="#435CDB"/>
<path d="M80.4967 33.1983H83.1003C83.5083 33.1983 83.8358 33.5257 83.8358 33.9337V36.5374C83.8358 36.9454 83.5083 37.2729 83.1003 37.2729H80.4967C80.0887 37.2729 79.7612 36.9454 79.7612 36.5374V33.9337C79.7612 33.5257 80.0887 33.1983 80.4967 33.1983Z" fill="#435CDB"/>
<path d="M85.9295 33.1983H88.5332C88.9412 33.1983 89.2687 33.5257 89.2687 33.9337V36.5374C89.2687 36.9454 88.9412 37.2729 88.5332 37.2729H85.9295C85.5215 37.2729 85.1941 36.9454 85.1941 36.5374V33.9337C85.1941 33.5257 85.5215 33.1983 85.9295 33.1983Z" fill="#435CDB"/>
<path d="M91.3624 33.1983H93.9661C94.3741 33.1983 94.7015 33.5257 94.7015 33.9337V36.5374C94.7015 36.9454 94.3741 37.2729 93.9661 37.2729H91.3624C90.9544 37.2729 90.6269 36.9454 90.6269 36.5374V33.9337C90.6269 33.5257 90.9544 33.1983 91.3624 33.1983Z" fill="#435CDB"/>
<path d="M31.6012 27.3127H34.2048C34.6128 27.3127 34.9403 27.6401 34.9403 28.0481V30.6518C34.9403 31.0598 34.6128 31.3873 34.2048 31.3873H31.6012C31.1932 31.3873 30.8657 31.0598 30.8657 30.6518V28.0481C30.8657 27.6401 31.1932 27.3127 31.6012 27.3127Z" fill="#435CDB"/>
<path d="M37.034 27.3127H39.6377C40.0457 27.3127 40.3732 27.6401 40.3732 28.0481V30.6518C40.3732 31.0598 40.0457 31.3873 39.6377 31.3873H37.034C36.626 31.3873 36.2985 31.0598 36.2985 30.6518V28.0481C36.2985 27.6401 36.626 27.3127 37.034 27.3127Z" fill="#435CDB"/>
<path d="M42.4668 27.3127H45.0705C45.4785 27.3127 45.8059 27.6401 45.8059 28.0481V30.6518C45.8059 31.0598 45.4785 31.3873 45.0705 31.3873H42.4668C42.0588 31.3873 41.7313 31.0598 41.7313 30.6518V28.0481C41.7313 27.6401 42.0588 27.3127 42.4668 27.3127Z" fill="#435CDB"/>
<path d="M47.8996 27.3127H50.5033C50.9113 27.3127 51.2388 27.6401 51.2388 28.0481V30.6518C51.2388 31.0598 50.9113 31.3873 50.5033 31.3873H47.8996C47.4916 31.3873 47.1642 31.0598 47.1642 30.6518V28.0481C47.1642 27.6401 47.4916 27.3127 47.8996 27.3127Z" fill="#435CDB"/>
<path d="M53.3325 27.3127H55.9362C56.3442 27.3127 56.6717 27.6401 56.6717 28.0481V30.6518C56.6717 31.0598 56.3442 31.3873 55.9362 31.3873H53.3325C52.9245 31.3873 52.597 31.0598 52.597 30.6518V28.0481C52.597 27.6401 52.9245 27.3127 53.3325 27.3127Z" fill="#435CDB"/>
<path d="M58.7653 27.3127H61.369C61.777 27.3127 62.1045 27.6401 62.1045 28.0481V30.6518C62.1045 31.0598 61.777 31.3873 61.369 31.3873H58.7653C58.3573 31.3873 58.0298 31.0598 58.0298 30.6518V28.0481C58.0298 27.6401 58.3573 27.3127 58.7653 27.3127Z" fill="#435CDB"/>
<path d="M64.1982 27.3127H66.8019C67.2099 27.3127 67.5373 27.6401 67.5373 28.0481V30.6518C67.5373 31.0598 67.2099 31.3873 66.8019 31.3873H64.1982C63.7902 31.3873 63.4627 31.0598 63.4627 30.6518V28.0481C63.4627 27.6401 63.7902 27.3127 64.1982 27.3127Z" fill="#435CDB"/>
<path d="M69.631 27.3127H72.2347C72.6427 27.3127 72.9701 27.6401 72.9701 28.0481V30.6518C72.9701 31.0598 72.6427 31.3873 72.2347 31.3873H69.631C69.223 31.3873 68.8955 31.0598 68.8955 30.6518V28.0481C68.8955 27.6401 69.223 27.3127 69.631 27.3127Z" fill="#435CDB"/>
<path d="M75.0639 27.3127H77.6675C78.0755 27.3127 78.403 27.6401 78.403 28.0481V30.6518C78.403 31.0598 78.0755 31.3873 77.6675 31.3873H75.0639C74.6559 31.3873 74.3284 31.0598 74.3284 30.6518V28.0481C74.3284 27.6401 74.6559 27.3127 75.0639 27.3127Z" fill="#435CDB"/>
<path d="M80.4967 27.3127H83.1003C83.5083 27.3127 83.8358 27.6401 83.8358 28.0481V30.6518C83.8358 31.0598 83.5083 31.3873 83.1003 31.3873H80.4967C80.0887 31.3873 79.7612 31.0598 79.7612 30.6518V28.0481C79.7612 27.6401 80.0887 27.3127 80.4967 27.3127Z" fill="#435CDB"/>
<path d="M85.9295 27.3127H88.5332C88.9412 27.3127 89.2687 27.6401 89.2687 28.0481V30.6518C89.2687 31.0598 88.9412 31.3873 88.5332 31.3873H85.9295C85.5215 31.3873 85.1941 31.0598 85.1941 30.6518V28.0481C85.1941 27.6401 85.5215 27.3127 85.9295 27.3127Z" fill="#435CDB"/>
<path d="M91.3624 27.3127H93.9661C94.3741 27.3127 94.7015 27.6401 94.7015 28.0481V30.6518C94.7015 31.0598 94.3741 31.3873 93.9661 31.3873H91.3624C90.9544 31.3873 90.6269 31.0598 90.6269 30.6518V28.0481C90.6269 27.6401 90.9544 27.3127 91.3624 27.3127Z" fill="#435CDB"/>
<path d="M31.6012 21.4271H34.2048C34.6128 21.4271 34.9403 21.7546 34.9403 22.1626V24.7662C34.9403 25.1742 34.6128 25.5017 34.2048 25.5017H31.6012C31.1932 25.5017 30.8657 25.1742 30.8657 24.7662V22.1626C30.8657 21.7546 31.1932 21.4271 31.6012 21.4271Z" fill="#435CDB"/>
<path d="M37.034 21.4271H39.6377C40.0457 21.4271 40.3732 21.7546 40.3732 22.1626V24.7662C40.3732 25.1742 40.0457 25.5017 39.6377 25.5017H37.034C36.626 25.5017 36.2985 25.1742 36.2985 24.7662V22.1626C36.2985 21.7546 36.626 21.4271 37.034 21.4271Z" fill="#435CDB"/>
<path d="M42.4668 21.4271H45.0705C45.4785 21.4271 45.8059 21.7546 45.8059 22.1626V24.7662C45.8059 25.1742 45.4785 25.5017 45.0705 25.5017H42.4668C42.0588 25.5017 41.7313 25.1742 41.7313 24.7662V22.1626C41.7313 21.7546 42.0588 21.4271 42.4668 21.4271Z" fill="#435CDB"/>
<path d="M47.8996 21.4271H50.5033C50.9113 21.4271 51.2388 21.7546 51.2388 22.1626V24.7662C51.2388 25.1742 50.9113 25.5017 50.5033 25.5017H47.8996C47.4916 25.5017 47.1642 25.1742 47.1642 24.7662V22.1626C47.1642 21.7546 47.4916 21.4271 47.8996 21.4271Z" fill="#435CDB"/>
<path d="M53.3325 21.4271H55.9362C56.3442 21.4271 56.6717 21.7546 56.6717 22.1626V24.7662C56.6717 25.1742 56.3442 25.5017 55.9362 25.5017H53.3325C52.9245 25.5017 52.597 25.1742 52.597 24.7662V22.1626C52.597 21.7546 52.9245 21.4271 53.3325 21.4271Z" fill="#435CDB"/>
<path d="M58.7653 21.4271H61.369C61.777 21.4271 62.1045 21.7546 62.1045 22.1626V24.7662C62.1045 25.1742 61.777 25.5017 61.369 25.5017H58.7653C58.3573 25.5017 58.0298 25.1742 58.0298 24.7662V22.1626C58.0298 21.7546 58.3573 21.4271 58.7653 21.4271Z" fill="#435CDB"/>
<path d="M64.1982 21.4271H66.8019C67.2099 21.4271 67.5373 21.7546 67.5373 22.1626V24.7662C67.5373 25.1742 67.2099 25.5017 66.8019 25.5017H64.1982C63.7902 25.5017 63.4627 25.1742 63.4627 24.7662V22.1626C63.4627 21.7546 63.7902 21.4271 64.1982 21.4271Z" fill="#435CDB"/>
<path d="M69.631 21.4271H72.2347C72.6427 21.4271 72.9701 21.7546 72.9701 22.1626V24.7662C72.9701 25.1742 72.6427 25.5017 72.2347 25.5017H69.631C69.223 25.5017 68.8955 25.1742 68.8955 24.7662V22.1626C68.8955 21.7546 69.223 21.4271 69.631 21.4271Z" fill="#435CDB"/>
<path d="M75.0639 21.4271H77.6675C78.0755 21.4271 78.403 21.7546 78.403 22.1626V24.7662C78.403 25.1742 78.0755 25.5017 77.6675 25.5017H75.0639C74.6559 25.5017 74.3284 25.1742 74.3284 24.7662V22.1626C74.3284 21.7546 74.6559 21.4271 75.0639 21.4271Z" fill="#435CDB"/>
<path d="M80.4967 21.4271H83.1003C83.5083 21.4271 83.8358 21.7546 83.8358 22.1626V24.7662C83.8358 25.1742 83.5083 25.5017 83.1003 25.5017H80.4967C80.0887 25.5017 79.7612 25.1742 79.7612 24.7662V22.1626C79.7612 21.7546 80.0887 21.4271 80.4967 21.4271Z" fill="#435CDB"/>
<path d="M85.9295 21.4271H88.5332C88.9412 21.4271 89.2687 21.7546 89.2687 22.1626V24.7662C89.2687 25.1742 88.9412 25.5017 88.5332 25.5017H85.9295C85.5215 25.5017 85.1941 25.1742 85.1941 24.7662V22.1626C85.1941 21.7546 85.5215 21.4271 85.9295 21.4271Z" fill="#435CDB"/>
<path d="M91.3624 21.4271H93.9661C94.3741 21.4271 94.7015 21.7546 94.7015 22.1626V24.7662C94.7015 25.1742 94.3741 25.5017 93.9661 25.5017H91.3624C90.9544 25.5017 90.6269 25.1742 90.6269 24.7662V22.1626C90.6269 21.7546 90.9544 21.4271 91.3624 21.4271Z" fill="#435CDB"/>
<path d="M31.6011 15.5416H34.2048C34.6128 15.5416 34.9403 15.869 34.9403 16.277V18.8807C34.9403 19.2887 34.6128 19.6162 34.2048 19.6162H31.6011C31.1931 19.6162 30.8657 19.2887 30.8657 18.8807V16.277C30.8657 15.869 31.1931 15.5416 31.6011 15.5416Z" fill="#435CDB"/>
<path d="M37.034 15.5416H39.6377C40.0457 15.5416 40.3731 15.869 40.3731 16.277V18.8807C40.3731 19.2887 40.0457 19.6162 39.6377 19.6162H37.034C36.626 19.6162 36.2985 19.2887 36.2985 18.8807V16.277C36.2985 15.869 36.626 15.5416 37.034 15.5416Z" fill="#435CDB"/>
<path d="M42.4668 15.5416H45.0705C45.4785 15.5416 45.806 15.869 45.806 16.277V18.8807C45.806 19.2887 45.4785 19.6162 45.0705 19.6162H42.4668C42.0588 19.6162 41.7313 19.2887 41.7313 18.8807V16.277C41.7313 15.869 42.0588 15.5416 42.4668 15.5416Z" fill="#435CDB"/>
<path d="M47.8997 15.5416H50.5033C50.9113 15.5416 51.2388 15.869 51.2388 16.277V18.8807C51.2388 19.2887 50.9113 19.6162 50.5033 19.6162H47.8997C47.4917 19.6162 47.1642 19.2887 47.1642 18.8807V16.277C47.1642 15.869 47.4917 15.5416 47.8997 15.5416Z" fill="#435CDB"/>
<path d="M53.3325 15.5416H55.9362C56.3442 15.5416 56.6716 15.869 56.6716 16.277V18.8807C56.6716 19.2887 56.3442 19.6162 55.9362 19.6162H53.3325C52.9245 19.6162 52.597 19.2887 52.597 18.8807V16.277C52.597 15.869 52.9245 15.5416 53.3325 15.5416Z" fill="#435CDB"/>
<path d="M58.7653 15.5416H61.369C61.777 15.5416 62.1045 15.869 62.1045 16.277V18.8807C62.1045 19.2887 61.777 19.6162 61.369 19.6162H58.7653C58.3573 19.6162 58.0299 19.2887 58.0299 18.8807V16.277C58.0299 15.869 58.3573 15.5416 58.7653 15.5416Z" fill="#435CDB"/>
<path d="M64.1982 15.5416H66.8018C67.2098 15.5416 67.5373 15.869 67.5373 16.277V18.8807C67.5373 19.2887 67.2098 19.6162 66.8018 19.6162H64.1982C63.7902 19.6162 63.4627 19.2887 63.4627 18.8807V16.277C63.4627 15.869 63.7902 15.5416 64.1982 15.5416Z" fill="#435CDB"/>
<path d="M69.631 15.5416H72.2347C72.6427 15.5416 72.9701 15.869 72.9701 16.277V18.8807C72.9701 19.2887 72.6427 19.6162 72.2347 19.6162H69.631C69.223 19.6162 68.8955 19.2887 68.8955 18.8807V16.277C68.8955 15.869 69.223 15.5416 69.631 15.5416Z" fill="#435CDB"/>
<path d="M75.0638 15.5416H77.6675C78.0755 15.5416 78.403 15.869 78.403 16.277V18.8807C78.403 19.2887 78.0755 19.6162 77.6675 19.6162H75.0638C74.6558 19.6162 74.3284 19.2887 74.3284 18.8807V16.277C74.3284 15.869 74.6558 15.5416 75.0638 15.5416Z" fill="#435CDB"/>
<path d="M80.4967 15.5416H83.1003C83.5083 15.5416 83.8358 15.869 83.8358 16.277V18.8807C83.8358 19.2887 83.5083 19.6162 83.1003 19.6162H80.4967C80.0887 19.6162 79.7612 19.2887 79.7612 18.8807V16.277C79.7612 15.869 80.0887 15.5416 80.4967 15.5416Z" fill="#435CDB"/>
<path d="M85.9295 15.5416H88.5332C88.9412 15.5416 89.2687 15.869 89.2687 16.277V18.8807C89.2687 19.2887 88.9412 19.6162 88.5332 19.6162H85.9295C85.5215 19.6162 85.194 19.2887 85.194 18.8807V16.277C85.194 15.869 85.5215 15.5416 85.9295 15.5416Z" fill="#435CDB"/>
<path d="M91.3623 15.5416H93.966C94.374 15.5416 94.7015 15.869 94.7015 16.277V18.8807C94.7015 19.2887 94.374 19.6162 93.966 19.6162H91.3623C90.9543 19.6162 90.6269 19.2887 90.6269 18.8807V16.277C90.6269 15.869 90.9543 15.5416 91.3623 15.5416Z" fill="#435CDB"/>
</mask>
<g mask="url(#mask0_1_2)">
<path fill-rule="evenodd" clip-rule="evenodd" d="M95 15H30V61H95V15ZM56.9135 26.2298C55.5811 25.4055 53.8612 26.3639 53.8612 27.9307V48.272C53.8612 49.8388 55.5811 50.7971 56.9135 49.9727L73.352 39.8017C74.6156 39.0199 74.6156 37.182 73.352 36.4002L56.9135 26.2298Z" fill="#22FFAA"/>
</g>
</g>
</g>
<defs>
<clipPath id="clip0_1_2">
<rect width="149" height="76" fill="white"/>
</clipPath>
<clipPath id="clip1_1_2">
<rect width="149" height="76" fill="white"/>
</clipPath>
<clipPath id="clip2_1_2">
<rect width="65" height="46" fill="white" transform="translate(30 15)"/>
</clipPath>
</defs>
</svg>
