<svg width="124" height="124" viewBox="0 0 124 124" fill="none" xmlns="http://www.w3.org/2000/svg">
<rect width="124" height="124" rx="30" fill="#F8F9FB"/>
<rect x="36" y="20" width="52" height="52" rx="26" fill="#CCD4E0"/>
<path d="M59 52V39L71 37V50" stroke="white" stroke-width="2" stroke-linecap="round" stroke-linejoin="round"/>
<path d="M56 55C57.6569 55 59 53.6569 59 52C59 50.3431 57.6569 49 56 49C54.3431 49 53 50.3431 53 52C53 53.6569 54.3431 55 56 55Z" stroke="white" stroke-width="2" stroke-linecap="round" stroke-linejoin="round"/>
<path d="M68 53C69.6569 53 71 51.6569 71 50C71 48.3431 69.6569 47 68 47C66.3431 47 65 48.3431 65 50C65 51.6569 66.3431 53 68 53Z" stroke="white" stroke-width="2" stroke-linecap="round" stroke-linejoin="round"/>
<path d="M47.1676 100L46.19 97.2246H42.3687L41.3912 100H39.6617L43.3805 89.9648H45.1988L48.9107 100H47.1676ZM45.7662 95.8164L44.816 93.082C44.7796 92.9635 44.7271 92.7972 44.6588 92.583C44.5904 92.3643 44.5221 92.1432 44.4537 91.9199C44.3854 91.6921 44.3284 91.5007 44.2828 91.3457C44.2372 91.5326 44.1803 91.7422 44.1119 91.9746C44.0481 92.2025 43.9843 92.4167 43.9205 92.6172C43.8613 92.8177 43.8157 92.9727 43.7838 93.082L42.8268 95.8164H45.7662ZM49.2244 92.4326H50.9744L52.5262 96.7529C52.5945 96.9489 52.6561 97.1426 52.7107 97.334C52.77 97.5208 52.8201 97.7054 52.8611 97.8877C52.9067 98.07 52.9432 98.2523 52.9705 98.4346H53.0115C53.0571 98.1976 53.1209 97.9333 53.2029 97.6416C53.2895 97.3454 53.3852 97.0492 53.49 96.7529L54.9803 92.4326H56.7098L53.4627 101.039C53.2758 101.531 53.0457 101.951 52.7723 102.297C52.5034 102.648 52.1844 102.912 51.8152 103.09C51.4461 103.272 51.0245 103.363 50.5506 103.363C50.3227 103.363 50.1245 103.35 49.9559 103.322C49.7872 103.299 49.6437 103.274 49.5252 103.247V101.962C49.6209 101.985 49.7417 102.005 49.8875 102.023C50.0333 102.042 50.1837 102.051 50.3387 102.051C50.6258 102.051 50.8742 101.994 51.0838 101.88C51.2934 101.766 51.4712 101.604 51.617 101.395C51.7628 101.189 51.8836 100.955 51.9793 100.69L52.2459 99.9795L49.2244 92.4326ZM64.3379 92.4326V98.7559H65.4316V102.666H63.9482V100H58.7256V102.666H57.2422V98.7559H57.8574C58.2402 98.1999 58.5592 97.5801 58.8145 96.8965C59.0742 96.2129 59.2747 95.4928 59.416 94.7363C59.5618 93.9753 59.653 93.2074 59.6895 92.4326H64.3379ZM62.7451 93.6631H61.0703C61.0156 94.2783 60.9222 94.8913 60.79 95.502C60.6579 96.1081 60.487 96.6891 60.2773 97.2451C60.0723 97.7965 59.8262 98.3001 59.5391 98.7559H62.7451V93.6631ZM68.6848 92.4326V96.2949C68.6848 96.418 68.6802 96.5752 68.6711 96.7666C68.6665 96.9535 68.6574 97.1494 68.6437 97.3545C68.6301 97.555 68.6164 97.7396 68.6027 97.9082C68.5891 98.0768 68.5777 98.2021 68.5686 98.2842L72.3762 92.4326H74.3312V100H72.7932V96.1787C72.7932 95.9782 72.7977 95.7458 72.8068 95.4814C72.8205 95.2171 72.8342 94.9619 72.8479 94.7158C72.8661 94.4697 72.8775 94.2829 72.882 94.1553L69.0881 100H67.1398V92.4326H68.6848ZM83.641 96.1992C83.641 96.8281 83.559 97.3864 83.3949 97.874C83.2309 98.3617 82.9916 98.7741 82.6771 99.1113C82.3627 99.444 81.9844 99.6992 81.5424 99.877C81.1003 100.05 80.6013 100.137 80.0453 100.137C79.5258 100.137 79.0495 100.05 78.6166 99.877C78.1837 99.6992 77.8077 99.444 77.4887 99.1113C77.1742 98.7741 76.9304 98.3617 76.7572 97.874C76.584 97.3864 76.4975 96.8281 76.4975 96.1992C76.4975 95.3652 76.641 94.6589 76.9281 94.0801C77.2198 93.4967 77.6345 93.0524 78.1723 92.7471C78.71 92.4417 79.3503 92.2891 80.0932 92.2891C80.7904 92.2891 81.4057 92.4417 81.9389 92.7471C82.4721 93.0524 82.8891 93.4967 83.1898 94.0801C83.4906 94.6634 83.641 95.3698 83.641 96.1992ZM78.1518 96.1992C78.1518 96.7507 78.2178 97.2223 78.35 97.6143C78.4867 98.0062 78.6964 98.307 78.9789 98.5166C79.2615 98.7217 79.626 98.8242 80.0727 98.8242C80.5193 98.8242 80.8839 98.7217 81.1664 98.5166C81.449 98.307 81.6563 98.0062 81.7885 97.6143C81.9206 97.2223 81.9867 96.7507 81.9867 96.1992C81.9867 95.6478 81.9206 95.1807 81.7885 94.7979C81.6563 94.4105 81.449 94.1165 81.1664 93.916C80.8839 93.7109 80.517 93.6084 80.0658 93.6084C79.4005 93.6084 78.9151 93.8317 78.6098 94.2783C78.3044 94.7249 78.1518 95.3652 78.1518 96.1992Z" fill="#A6B3C9"/>
</svg>
