<svg width="124" height="124" viewBox="0 0 124 124" fill="none" xmlns="http://www.w3.org/2000/svg">
<rect width="124" height="124" rx="30" fill="#F8F9FB"/>
<rect x="36" y="20" width="52" height="52" rx="26" fill="#CCD4E0"/>
<path d="M69 37H55C53.8954 37 53 37.8954 53 39V53C53 54.1046 53.8954 55 55 55H69C70.1046 55 71 54.1046 71 53V39C71 37.8954 70.1046 37 69 37Z" stroke="white" stroke-width="2" stroke-linecap="round" stroke-linejoin="round"/>
<path d="M58.5 44C59.3284 44 60 43.3284 60 42.5C60 41.6716 59.3284 41 58.5 41C57.6716 41 57 41.6716 57 42.5C57 43.3284 57.6716 44 58.5 44Z" stroke="white" stroke-width="2" stroke-linecap="round" stroke-linejoin="round"/>
<path d="M71 49L66 44L55 55" stroke="white" stroke-width="2" stroke-linecap="round" stroke-linejoin="round"/>
<path d="M50.175 89.8623V91.0928C51.246 91.1156 52.0982 91.2979 52.7316 91.6396C53.3697 91.9769 53.8277 92.4212 54.1057 92.9727C54.3882 93.5241 54.5295 94.137 54.5295 94.8115C54.5295 95.2581 54.4566 95.7025 54.3107 96.1445C54.1649 96.5866 53.9257 96.9899 53.593 97.3545C53.2603 97.7191 52.8137 98.013 52.2531 98.2363C51.6926 98.4596 50.9999 98.5804 50.175 98.5986V100.137H48.6437V98.5986C47.8007 98.5804 47.0988 98.4574 46.5383 98.2295C45.9777 98.0016 45.5311 97.7054 45.1984 97.3408C44.8703 96.9717 44.6356 96.5684 44.4943 96.1309C44.3576 95.6888 44.2893 95.2513 44.2893 94.8184C44.2893 94.3216 44.3645 93.8522 44.5148 93.4102C44.6698 92.9681 44.9182 92.5762 45.26 92.2344C45.6018 91.8926 46.0507 91.6214 46.6066 91.4209C47.1626 91.2204 47.8417 91.111 48.6437 91.0928V89.8623H50.175ZM48.6437 92.4121C47.9647 92.4349 47.4224 92.5488 47.0168 92.7539C46.6112 92.9544 46.3195 93.2301 46.1418 93.5811C45.9641 93.932 45.8752 94.3398 45.8752 94.8047C45.8752 95.3014 45.9732 95.7321 46.1691 96.0967C46.3651 96.4613 46.6682 96.7484 47.0783 96.958C47.4885 97.1631 48.0103 97.277 48.6437 97.2998V92.4121ZM50.175 92.4121V97.2998C50.8221 97.277 51.3485 97.1608 51.7541 96.9512C52.1643 96.7415 52.465 96.4544 52.6564 96.0898C52.8524 95.7207 52.9504 95.29 52.9504 94.7979C52.9504 94.3285 52.8615 93.9206 52.6838 93.5742C52.5061 93.2233 52.2144 92.9476 51.8088 92.7471C51.4032 92.5465 50.8586 92.4349 50.175 92.4121ZM63.3676 96.1992C63.3676 96.8281 63.2855 97.3864 63.1215 97.874C62.9574 98.3617 62.7182 98.7741 62.4037 99.1113C62.0893 99.444 61.711 99.6992 61.2689 99.877C60.8269 100.05 60.3279 100.137 59.7719 100.137C59.2523 100.137 58.7761 100.05 58.3432 99.877C57.9102 99.6992 57.5342 99.444 57.2152 99.1113C56.9008 98.7741 56.657 98.3617 56.4838 97.874C56.3106 97.3864 56.224 96.8281 56.224 96.1992C56.224 95.3652 56.3676 94.6589 56.6547 94.0801C56.9464 93.4967 57.3611 93.0524 57.8988 92.7471C58.4366 92.4417 59.0769 92.2891 59.8197 92.2891C60.517 92.2891 61.1322 92.4417 61.6654 92.7471C62.1986 93.0524 62.6156 93.4967 62.9164 94.0801C63.2172 94.6634 63.3676 95.3698 63.3676 96.1992ZM57.8783 96.1992C57.8783 96.7507 57.9444 97.2223 58.0766 97.6143C58.2133 98.0062 58.4229 98.307 58.7055 98.5166C58.988 98.7217 59.3526 98.8242 59.7992 98.8242C60.2458 98.8242 60.6104 98.7217 60.893 98.5166C61.1755 98.307 61.3829 98.0062 61.515 97.6143C61.6472 97.2223 61.7133 96.7507 61.7133 96.1992C61.7133 95.6478 61.6472 95.1807 61.515 94.7979C61.3829 94.4105 61.1755 94.1165 60.893 93.916C60.6104 93.7109 60.2436 93.6084 59.7924 93.6084C59.127 93.6084 58.6417 93.8317 58.3363 94.2783C58.031 94.7249 57.8783 95.3652 57.8783 96.1992ZM71.2281 93.6973H68.7398V100H67.1402V93.6973H64.6656V92.4326H71.2281V93.6973ZM79.6902 96.1992C79.6902 96.8281 79.6082 97.3864 79.4441 97.874C79.2801 98.3617 79.0408 98.7741 78.7264 99.1113C78.4119 99.444 78.0337 99.6992 77.5916 99.877C77.1495 100.05 76.6505 100.137 76.0945 100.137C75.575 100.137 75.0988 100.05 74.6658 99.877C74.2329 99.6992 73.8569 99.444 73.5379 99.1113C73.2234 98.7741 72.9796 98.3617 72.8064 97.874C72.6333 97.3864 72.5467 96.8281 72.5467 96.1992C72.5467 95.3652 72.6902 94.6589 72.9773 94.0801C73.269 93.4967 73.6837 93.0524 74.2215 92.7471C74.7592 92.4417 75.3995 92.2891 76.1424 92.2891C76.8396 92.2891 77.4549 92.4417 77.9881 92.7471C78.5213 93.0524 78.9383 93.4967 79.2391 94.0801C79.5398 94.6634 79.6902 95.3698 79.6902 96.1992ZM74.201 96.1992C74.201 96.7507 74.2671 97.2223 74.3992 97.6143C74.5359 98.0062 74.7456 98.307 75.0281 98.5166C75.3107 98.7217 75.6753 98.8242 76.1219 98.8242C76.5685 98.8242 76.9331 98.7217 77.2156 98.5166C77.4982 98.307 77.7055 98.0062 77.8377 97.6143C77.9699 97.2223 78.0359 96.7507 78.0359 96.1992C78.0359 95.6478 77.9699 95.1807 77.8377 94.7979C77.7055 94.4105 77.4982 94.1165 77.2156 93.916C76.9331 93.7109 76.5662 93.6084 76.115 93.6084C75.4497 93.6084 74.9643 93.8317 74.659 94.2783C74.3536 94.7249 74.201 95.3652 74.201 96.1992Z" fill="#A6B3C9"/>
</svg>
