<svg width="124" height="124" viewBox="0 0 124 124" fill="none" xmlns="http://www.w3.org/2000/svg">
<rect width="124" height="124" rx="30" fill="#F8F9FB"/>
<rect x="36" y="20" width="52" height="52" rx="26" fill="#CCD4E0"/>
<path d="M53.5467 38H70.6592C71.9779 38 73.04 39.3209 73.04 40.6946V51.5709C73.04 52.9446 71.9779 54 70.6592 54H53.5467C52.228 54 50.96 52.9446 50.96 51.5709V40.6946C50.96 39.3209 52.228 38 53.5467 38ZM54.1437 40C53.2645 40 52.88 40.4006 52.88 41.3164V50.5C52.88 51.4158 53.2645 52 54.1437 52H70.0622C70.9414 52 71.12 51.4158 71.12 50.5V41.3164C71.12 40.4006 70.9414 40 70.0622 40H54.1437ZM57.8207 47.9414H57.8056V48.4226H56.6913V42.6964H57.8056V45.1665H57.8207C58.107 44.7063 58.514 44.4761 59.0417 44.4761C59.5261 44.4761 59.8993 44.646 60.1613 44.9858C60.4232 45.3255 60.5542 45.79 60.5542 46.3793C60.5542 47.0185 60.4013 47.5317 60.0957 47.919C59.79 48.3064 59.3815 48.5 58.87 48.5C58.4072 48.5 58.0575 48.3138 57.8207 47.9414ZM57.7882 46.3454V46.7299C57.7882 46.9725 57.8578 47.1734 57.9971 47.3326C58.1364 47.4918 58.3152 47.5714 58.5334 47.5714C58.7972 47.5714 59.0019 47.4692 59.1474 47.2649C59.2928 47.0606 59.3656 46.771 59.3656 46.3962C59.3656 46.085 59.299 45.842 59.166 45.6671C59.0328 45.4922 58.8425 45.4047 58.5949 45.4047C58.3627 45.4047 58.1702 45.4916 58.0174 45.6653C57.8646 45.839 57.7882 46.0657 57.7882 46.3454ZM63.4513 48.3452C63.2858 48.4484 63.0366 48.5 62.7038 48.5C61.9145 48.5 61.5199 48.0611 61.5199 47.1833V45.4047H60.9256V44.5535H61.5199V43.7289L62.6342 43.3928V44.5535H63.4513V45.4047H62.6342V46.9668C62.6342 47.3699 62.7847 47.5714 63.0857 47.5714L63.4513 47.494V48.3452ZM67.76 48.4226H66.6457V46.2946C66.6457 45.7014 66.434 45.4047 66.0107 45.4047C65.8065 45.4047 65.6384 45.4833 65.5064 45.6405C65.3745 45.7977 65.3085 45.9972 65.3085 46.239V48.4226H64.1942V44.5535H65.3085V45.1967H65.3236C65.5975 44.7164 65.9968 44.4761 66.5215 44.4761C67.3472 44.4761 67.76 45.0053 67.76 46.0637V48.4226Z" fill="white"/>
<path d="M44.4268 100H42.5195L38.4111 94.9277V100H36.7705V90.0059H38.4111V94.8457L42.4443 90.0059H44.2354L40.2021 94.832L44.4268 100ZM47.5021 92.4326V95.4746H51.0432V92.4326H52.6564V100H51.0432V96.7324H47.5021V100H45.8889V92.4326H47.5021ZM61.9525 96.1992C61.9525 96.8281 61.8705 97.3864 61.7064 97.874C61.5424 98.3617 61.3031 98.7741 60.9887 99.1113C60.6742 99.444 60.296 99.6992 59.8539 99.877C59.4118 100.05 58.9128 100.137 58.3568 100.137C57.8373 100.137 57.3611 100.05 56.9281 99.877C56.4952 99.6992 56.1192 99.444 55.8002 99.1113C55.4857 98.7741 55.2419 98.3617 55.0687 97.874C54.8956 97.3864 54.809 96.8281 54.809 96.1992C54.809 95.3652 54.9525 94.6589 55.2396 94.0801C55.5313 93.4967 55.946 93.0524 56.4838 92.7471C57.0215 92.4417 57.6618 92.2891 58.4047 92.2891C59.102 92.2891 59.7172 92.4417 60.2504 92.7471C60.7836 93.0524 61.2006 93.4967 61.5014 94.0801C61.8021 94.6634 61.9525 95.3698 61.9525 96.1992ZM56.4633 96.1992C56.4633 96.7507 56.5294 97.2223 56.6615 97.6143C56.7982 98.0062 57.0079 98.307 57.2904 98.5166C57.573 98.7217 57.9376 98.8242 58.3842 98.8242C58.8308 98.8242 59.1954 98.7217 59.4779 98.5166C59.7605 98.307 59.9678 98.0062 60.1 97.6143C60.2322 97.2223 60.2982 96.7507 60.2982 96.1992C60.2982 95.6478 60.2322 95.1807 60.1 94.7979C59.9678 94.4105 59.7605 94.1165 59.4779 93.916C59.1954 93.7109 58.8285 93.6084 58.3773 93.6084C57.712 93.6084 57.2266 93.8317 56.9213 94.2783C56.6159 94.7249 56.4633 95.3652 56.4633 96.1992ZM70.7086 92.4326V100H69.0885V93.7041H65.7115V100H64.0982V92.4326H70.7086ZM78.0018 92.4326H79.7723L76.6414 96.0693L80.0389 100H78.1863L74.9256 96.1582V100H73.3123V92.4326H74.9256V96.1035L78.0018 92.4326ZM84.5361 92.2891C85.4932 92.2891 86.2155 92.501 86.7031 92.9248C87.1953 93.3486 87.4414 94.0094 87.4414 94.9072V100H86.2998L85.9922 98.9268H85.9375C85.7233 99.2002 85.5023 99.4258 85.2744 99.6035C85.0465 99.7812 84.7822 99.9134 84.4814 100C84.1852 100.091 83.8229 100.137 83.3945 100.137C82.9434 100.137 82.54 100.055 82.1846 99.8906C81.8291 99.722 81.5488 99.4668 81.3438 99.125C81.1387 98.7832 81.0361 98.3503 81.0361 97.8262C81.0361 97.0469 81.3255 96.4613 81.9043 96.0693C82.4876 95.6774 83.3672 95.4609 84.543 95.4199L85.8555 95.3721V94.9756C85.8555 94.4515 85.7324 94.0778 85.4863 93.8545C85.2448 93.6312 84.903 93.5195 84.4609 93.5195C84.0827 93.5195 83.7158 93.5742 83.3604 93.6836C83.0049 93.793 82.6585 93.9274 82.3213 94.0869L81.8018 92.9521C82.1709 92.7562 82.5902 92.5967 83.0596 92.4736C83.5335 92.3506 84.0257 92.2891 84.5361 92.2891ZM85.8486 96.3838L84.8711 96.418C84.069 96.4453 83.5062 96.582 83.1826 96.8281C82.859 97.0742 82.6973 97.4115 82.6973 97.8398C82.6973 98.2135 82.8089 98.487 83.0322 98.6602C83.2555 98.8288 83.5495 98.9131 83.9141 98.9131C84.4701 98.9131 84.9303 98.7559 85.2949 98.4414C85.6641 98.1224 85.8486 97.6553 85.8486 97.04V96.3838Z" fill="#A6B3C9"/>
</svg>
