<svg width="124" height="124" viewBox="0 0 124 124" fill="none" xmlns="http://www.w3.org/2000/svg">
<rect width="124" height="124" rx="30" fill="#F8F9FB"/>
<rect x="36" y="20" width="52" height="52" rx="26" fill="#CCD4E0"/>
<path d="M73 41L66 46L73 51V41Z" stroke="white" stroke-width="2" stroke-linecap="round" stroke-linejoin="round"/>
<path d="M64 39H53C51.8954 39 51 39.8954 51 41V51C51 52.1046 51.8954 53 53 53H64C65.1046 53 66 52.1046 66 51V41C66 39.8954 65.1046 39 64 39Z" stroke="white" stroke-width="2" stroke-linecap="round" stroke-linejoin="round"/>
<path d="M42.6691 90.0059H45.6428C46.9325 90.0059 47.9055 90.1927 48.5617 90.5664C49.218 90.9401 49.5461 91.585 49.5461 92.501C49.5461 92.8838 49.4777 93.2301 49.341 93.54C49.2089 93.8454 49.0152 94.0983 48.76 94.2988C48.5048 94.4948 48.1903 94.627 47.8166 94.6953V94.7637C48.204 94.832 48.548 94.9528 48.8488 95.126C49.1542 95.2992 49.3934 95.5475 49.5666 95.8711C49.7443 96.1947 49.8332 96.6139 49.8332 97.1289C49.8332 97.7396 49.6874 98.2591 49.3957 98.6875C49.1086 99.1159 48.6962 99.4417 48.1584 99.665C47.6252 99.8883 46.9917 100 46.258 100H42.6691V90.0059ZM44.3098 94.1279H45.882C46.6249 94.1279 47.1398 94.0072 47.427 93.7656C47.7141 93.5241 47.8576 93.1709 47.8576 92.7061C47.8576 92.2321 47.6867 91.8903 47.3449 91.6807C47.0077 91.471 46.4699 91.3662 45.7316 91.3662H44.3098V94.1279ZM44.3098 95.4541V98.626H46.0393C46.8049 98.626 47.3426 98.4779 47.6525 98.1816C47.9624 97.8854 48.1174 97.4844 48.1174 96.9785C48.1174 96.6686 48.0467 96.3997 47.9055 96.1719C47.7687 95.944 47.5432 95.7686 47.2287 95.6455C46.9143 95.5179 46.4904 95.4541 45.9572 95.4541H44.3098ZM53.5785 92.4326V96.2949C53.5785 96.418 53.574 96.5752 53.5648 96.7666C53.5603 96.9535 53.5512 97.1494 53.5375 97.3545C53.5238 97.555 53.5102 97.7396 53.4965 97.9082C53.4828 98.0768 53.4714 98.2021 53.4623 98.2842L57.2699 92.4326H59.225V100H57.6869V96.1787C57.6869 95.9782 57.6915 95.7458 57.7006 95.4814C57.7143 95.2171 57.7279 94.9619 57.7416 94.7158C57.7598 94.4697 57.7712 94.2829 57.7758 94.1553L53.9818 100H52.0336V92.4326H53.5785ZM68.0152 92.4326V98.7559H69.109V102.666H67.6256V100H62.4029V102.666H60.9195V98.7559H61.5348C61.9176 98.1999 62.2366 97.5801 62.4918 96.8965C62.7516 96.2129 62.9521 95.4928 63.0934 94.7363C63.2392 93.9753 63.3303 93.2074 63.3668 92.4326H68.0152ZM66.4225 93.6631H64.7477C64.693 94.2783 64.5995 94.8913 64.4674 95.502C64.3352 96.1081 64.1643 96.6891 63.9547 97.2451C63.7496 97.7965 63.5035 98.3001 63.2164 98.7559H66.4225V93.6631ZM73.8318 92.2891C74.5063 92.2891 75.0851 92.4281 75.5682 92.7061C76.0512 92.984 76.4227 93.3783 76.6824 93.8887C76.9422 94.3991 77.0721 95.0098 77.0721 95.7207V96.582H72.0203C72.0385 97.3158 72.2345 97.8809 72.6082 98.2773C72.9865 98.6738 73.5151 98.8721 74.1941 98.8721C74.6772 98.8721 75.1102 98.8265 75.493 98.7354C75.8803 98.6396 76.2791 98.5007 76.6893 98.3184V99.624C76.311 99.8018 75.9259 99.9316 75.534 100.014C75.1421 100.096 74.6727 100.137 74.1258 100.137C73.3829 100.137 72.729 99.9932 72.1639 99.7061C71.6033 99.4144 71.1635 98.9814 70.8445 98.4072C70.5301 97.833 70.3729 97.1198 70.3729 96.2676C70.3729 95.4199 70.5164 94.6999 70.8035 94.1074C71.0906 93.515 71.4939 93.0638 72.0135 92.7539C72.533 92.444 73.1391 92.2891 73.8318 92.2891ZM73.8318 93.499C73.326 93.499 72.9158 93.6631 72.6014 93.9912C72.2915 94.3193 72.1092 94.8001 72.0545 95.4336H75.4998C75.4952 95.0553 75.4314 94.7204 75.3084 94.4287C75.1899 94.137 75.0076 93.9092 74.7615 93.7451C74.52 93.5811 74.2101 93.499 73.8318 93.499ZM85.8828 96.1992C85.8828 96.8281 85.8008 97.3864 85.6367 97.874C85.4727 98.3617 85.2334 98.7741 84.9189 99.1113C84.6045 99.444 84.2262 99.6992 83.7842 99.877C83.3421 100.05 82.8431 100.137 82.2871 100.137C81.7676 100.137 81.2913 100.05 80.8584 99.877C80.4255 99.6992 80.0495 99.444 79.7305 99.1113C79.416 98.7741 79.1722 98.3617 78.999 97.874C78.8258 97.3864 78.7393 96.8281 78.7393 96.1992C78.7393 95.3652 78.8828 94.6589 79.1699 94.0801C79.4616 93.4967 79.8763 93.0524 80.4141 92.7471C80.9518 92.4417 81.5921 92.2891 82.335 92.2891C83.0322 92.2891 83.6475 92.4417 84.1807 92.7471C84.7139 93.0524 85.1309 93.4967 85.4316 94.0801C85.7324 94.6634 85.8828 95.3698 85.8828 96.1992ZM80.3936 96.1992C80.3936 96.7507 80.4596 97.2223 80.5918 97.6143C80.7285 98.0062 80.9382 98.307 81.2207 98.5166C81.5033 98.7217 81.8678 98.8242 82.3145 98.8242C82.7611 98.8242 83.1257 98.7217 83.4082 98.5166C83.6908 98.307 83.8981 98.0062 84.0303 97.6143C84.1624 97.2223 84.2285 96.7507 84.2285 96.1992C84.2285 95.6478 84.1624 95.1807 84.0303 94.7979C83.8981 94.4105 83.6908 94.1165 83.4082 93.916C83.1257 93.7109 82.7588 93.6084 82.3076 93.6084C81.6423 93.6084 81.1569 93.8317 80.8516 94.2783C80.5462 94.7249 80.3936 95.3652 80.3936 96.1992Z" fill="#A6B3C9"/>
</svg>
