<svg width="40" height="40" viewBox="0 0 40 40" fill="none" xmlns="http://www.w3.org/2000/svg">
<rect y="-0.000274658" width="40" height="40" rx="20" fill="#243CBB"/>
<g clip-path="url(#clip0_8_8939)">
<path d="M19.9999 9.99973C22.9038 9.99973 25.266 12.3151 25.266 15.1616C25.266 18.0078 22.9038 20.3222 19.9999 20.3222C17.0961 20.3222 14.735 18.0078 14.735 15.1616C14.735 12.3151 17.0961 9.99973 19.9999 9.99973ZM19.9999 13.0241C18.7981 13.0241 17.8208 13.9834 17.8208 15.1616C17.8208 16.3393 18.798 17.2979 19.9999 17.2979C21.202 17.2979 22.1803 16.3393 22.1803 15.1616C22.1803 13.9834 21.202 13.0241 19.9999 13.0241ZM24.3416 20.4978C24.8626 20.4899 25.3749 20.7417 25.6721 21.206C26.1263 21.9133 25.9088 22.8467 25.1889 23.2916C24.2367 23.8772 23.2034 24.2927 22.1318 24.5322L25.0748 27.4185C25.6772 28.0093 25.6767 28.9663 25.0741 29.5572C24.7721 29.8521 24.3782 29.9997 23.9833 29.9997C23.5888 29.9997 23.1935 29.8519 22.8924 29.5566L20.0011 26.721L17.1073 29.5566C16.5054 30.1473 15.5293 30.1473 14.9263 29.5566C14.3235 28.9661 14.3235 28.0081 14.9263 27.4185L17.8705 24.5329C16.7986 24.2934 15.765 23.8776 14.8134 23.2916C14.0921 22.8467 13.8742 21.9123 14.3283 21.206C14.7828 20.4985 15.7346 20.2854 16.4564 20.731C18.6123 22.0604 21.3901 22.0595 23.5453 20.731C23.7934 20.5778 24.0687 20.502 24.3416 20.4979V20.4978Z" fill="white"/>
</g>
<defs>
<clipPath id="clip0_8_8939">
<rect width="11.8182" height="20" fill="white" transform="matrix(-1 0 0 1 25.9093 9.99973)"/>
</clipPath>
</defs>
</svg>
