<?xml version="1.0" encoding="utf-8"?>
<!-- Generator: Adobe Illustrator 26.0.1, SVG Export Plug-In . SVG Version: 6.00 Build 0)  -->
<svg version="1.1" id="Слой_1" xmlns="http://www.w3.org/2000/svg" xmlns:xlink="http://www.w3.org/1999/xlink" x="0px" y="0px"
	 viewBox="0 0 24 24" style="enable-background:new 0 0 24 24;" xml:space="preserve">
<style type="text/css">
	.st0{fill:none;stroke:#CCD4E0;stroke-width:2;stroke-linecap:round;stroke-linejoin:round;}
</style>
<g>
	<path class="st0" d="M18,8c0-1.6-0.6-3.1-1.8-4.2C15.1,2.6,13.6,2,12,2S8.9,2.6,7.8,3.8S6,6.4,6,8c0,7-3,9-3,9h18C21,17,18,15,18,8
		z"/>
	<path class="st0" d="M13.7,21c-0.2,0.3-0.4,0.6-0.7,0.7c-0.3,0.2-0.6,0.3-1,0.3s-0.7-0.1-1-0.3c-0.3-0.2-0.6-0.4-0.7-0.7"/>
</g>
</svg>
